solid OpenSCAD_Model
  facet normal 0 0 -1
    outer loop
      vertex -19.8 0 -6
      vertex -19.3673 4.11665 -6
      vertex -19.3673 -4.11665 -6
    endloop
  endfacet
  facet normal 0 0 -1
    outer loop
      vertex -19.3673 -4.11665 -6
      vertex -19.3673 4.11665 -6
      vertex -18.0882 8.05339 -6
    endloop
  endfacet
  facet normal 0 0 -1
    outer loop
      vertex -19.3673 -4.11665 -6
      vertex -18.0882 8.05339 -6
      vertex -16.0185 11.6381 -6
    endloop
  endfacet
  facet normal 0 0 -1
    outer loop
      vertex -19.3673 -4.11665 -6
      vertex -16.0185 11.6381 -6
      vertex -13.2488 14.7143 -6
    endloop
  endfacet
  facet normal 0 0 -1
    outer loop
      vertex -19.3673 -4.11665 -6
      vertex -13.2488 14.7143 -6
      vertex -9.9 17.1473 -6
    endloop
  endfacet
  facet normal 0 0 -1
    outer loop
      vertex -19.3673 -4.11665 -6
      vertex -9.9 17.1473 -6
      vertex -6.11854 18.8309 -6
    endloop
  endfacet
  facet normal 0 0 -1
    outer loop
      vertex -19.3673 -4.11665 -6
      vertex -6.11854 18.8309 -6
      vertex -2.06966 19.6915 -6
    endloop
  endfacet
  facet normal 0 0 -1
    outer loop
      vertex -19.3673 -4.11665 -6
      vertex -2.06966 19.6915 -6
      vertex 2.06966 19.6915 -6
    endloop
  endfacet
  facet normal 0 0 -1
    outer loop
      vertex -19.3673 -4.11665 -6
      vertex 2.06966 19.6915 -6
      vertex 6.11854 18.8309 -6
    endloop
  endfacet
  facet normal 0 0 -1
    outer loop
      vertex -19.3673 -4.11665 -6
      vertex 6.11854 18.8309 -6
      vertex 9.9 17.1473 -6
    endloop
  endfacet
  facet normal 0 0 -1
    outer loop
      vertex -2.5 4 -6
      vertex 13.2488 14.7143 -6
      vertex 16.0185 11.6381 -6
    endloop
  endfacet
  facet normal 0 0 -1
    outer loop
      vertex 5.61803 5.17557 -6
      vertex 16.0185 11.6381 -6
      vertex 18.0882 8.05339 -6
    endloop
  endfacet
  facet normal 0 0 -1
    outer loop
      vertex 6 4 -6
      vertex 18.0882 8.05339 -6
      vertex 19.3673 4.11665 -6
    endloop
  endfacet
  facet normal 0 0 -1
    outer loop
      vertex -1.57295 -2.23664 -6
      vertex 19.3673 4.11665 -6
      vertex 19.8 0 -6
    endloop
  endfacet
  facet normal 0 0 -1
    outer loop
      vertex 6 -4 -6
      vertex 19.8 0 -6
      vertex 19.3673 -4.11665 -6
    endloop
  endfacet
  facet normal 0 0 -1
    outer loop
      vertex 4.61803 -5.90211 -6
      vertex 19.3673 -4.11665 -6
      vertex 18.0882 -8.05339 -6
    endloop
  endfacet
  facet normal 0 0 -1
    outer loop
      vertex -1 -4 -6
      vertex 2.38197 -5.17557 -6
      vertex -1.57295 -5.76336 -6
    endloop
  endfacet
  facet normal 0 0 -1
    outer loop
      vertex -19.3673 -4.11665 -6
      vertex 16.0185 -11.6381 -6
      vertex 13.2488 -14.7143 -6
    endloop
  endfacet
  facet normal 0 0 -1
    outer loop
      vertex -19.3673 -4.11665 -6
      vertex 13.2488 -14.7143 -6
      vertex 9.9 -17.1473 -6
    endloop
  endfacet
  facet normal 0 0 -1
    outer loop
      vertex -19.3673 -4.11665 -6
      vertex 9.9 -17.1473 -6
      vertex 6.11854 -18.8309 -6
    endloop
  endfacet
  facet normal 0 0 -1
    outer loop
      vertex -19.3673 -4.11665 -6
      vertex 6.11854 -18.8309 -6
      vertex 2.06966 -19.6915 -6
    endloop
  endfacet
  facet normal 0 0 -1
    outer loop
      vertex -19.3673 -4.11665 -6
      vertex 2.06966 -19.6915 -6
      vertex -2.06966 -19.6915 -6
    endloop
  endfacet
  facet normal 0 0 -1
    outer loop
      vertex -19.3673 -4.11665 -6
      vertex -2.06966 -19.6915 -6
      vertex -6.11854 -18.8309 -6
    endloop
  endfacet
  facet normal 0 0 -1
    outer loop
      vertex -19.3673 -4.11665 -6
      vertex -6.11854 -18.8309 -6
      vertex -9.9 -17.1473 -6
    endloop
  endfacet
  facet normal 0 0 -1
    outer loop
      vertex -19.3673 -4.11665 -6
      vertex -9.9 -17.1473 -6
      vertex -13.2488 -14.7143 -6
    endloop
  endfacet
  facet normal 0 0 -1
    outer loop
      vertex -19.3673 -4.11665 -6
      vertex -13.2488 -14.7143 -6
      vertex -16.0185 -11.6381 -6
    endloop
  endfacet
  facet normal 0 0 -1
    outer loop
      vertex -19.3673 -4.11665 -6
      vertex -16.0185 -11.6381 -6
      vertex -18.0882 -8.05339 -6
    endloop
  endfacet
  facet normal 0 0 -1
    outer loop
      vertex -1.57295 -5.76336 -6
      vertex 18.0882 -8.05339 -6
      vertex 16.0185 -11.6381 -6
    endloop
  endfacet
  facet normal 0 0 -1
    outer loop
      vertex -19.3673 -4.11665 -6
      vertex -6.42705 -5.76336 -6
      vertex -4.92705 -6.85317 -6
    endloop
  endfacet
  facet normal 0 0 -1
    outer loop
      vertex -19.3673 -4.11665 -6
      vertex -4.92705 -6.85317 -6
      vertex 16.0185 -11.6381 -6
    endloop
  endfacet
  facet normal 0 0 -1
    outer loop
      vertex -4.92705 -6.85317 -6
      vertex -3.07295 -6.85317 -6
      vertex 16.0185 -11.6381 -6
    endloop
  endfacet
  facet normal 0 0 -1
    outer loop
      vertex -1.57295 -5.76336 -6
      vertex 16.0185 -11.6381 -6
      vertex -3.07295 -6.85317 -6
    endloop
  endfacet
  facet normal 0 0 -1
    outer loop
      vertex 2.38197 -2.82443 -6
      vertex -1.57295 -2.23664 -6
      vertex 3.38197 -2.09789 -6
    endloop
  endfacet
  facet normal 0 0 -1
    outer loop
      vertex -3.07295 -1.14683 -6
      vertex 19.3673 4.11665 -6
      vertex -1.57295 -2.23664 -6
    endloop
  endfacet
  facet normal 0 0 -1
    outer loop
      vertex 3.38197 -5.90211 -6
      vertex -1.57295 -5.76336 -6
      vertex 2.38197 -5.17557 -6
    endloop
  endfacet
  facet normal 0 0 -1
    outer loop
      vertex -4.92705 -1.14683 -6
      vertex 19.3673 4.11665 -6
      vertex -3.07295 -1.14683 -6
    endloop
  endfacet
  facet normal 0 0 -1
    outer loop
      vertex -19.3673 -4.11665 -6
      vertex 19.3673 4.11665 -6
      vertex -4.92705 -1.14683 -6
    endloop
  endfacet
  facet normal 0 0 -1
    outer loop
      vertex -5.5 4 -6
      vertex -19.3673 -4.11665 -6
      vertex -5.06066 5.06066 -6
    endloop
  endfacet
  facet normal 0 0 -1
    outer loop
      vertex 2 -4 -6
      vertex -1 -4 -6
      vertex 2.38197 -2.82443 -6
    endloop
  endfacet
  facet normal 0 0 -1
    outer loop
      vertex -4 5.5 -6
      vertex 9.9 17.1473 -6
      vertex 13.2488 14.7143 -6
    endloop
  endfacet
  facet normal 0 0 -1
    outer loop
      vertex -2.5 4 -6
      vertex 3.38197 5.90211 -6
      vertex -2.93934 2.93934 -6
    endloop
  endfacet
  facet normal 0 0 -1
    outer loop
      vertex 3.38197 5.90211 -6
      vertex 16.0185 11.6381 -6
      vertex 4.61803 5.90211 -6
    endloop
  endfacet
  facet normal 0 0 -1
    outer loop
      vertex 2.38197 2.82443 -6
      vertex -19.3673 -4.11665 -6
      vertex 2 4 -6
    endloop
  endfacet
  facet normal 0 0 -1
    outer loop
      vertex 2.38197 5.17557 -6
      vertex -2.93934 2.93934 -6
      vertex 3.38197 5.90211 -6
    endloop
  endfacet
  facet normal 0 0 -1
    outer loop
      vertex -4 5.5 -6
      vertex 13.2488 14.7143 -6
      vertex -2.93934 5.06066 -6
    endloop
  endfacet
  facet normal 0 0 -1
    outer loop
      vertex -2.93934 5.06066 -6
      vertex 13.2488 14.7143 -6
      vertex -2.5 4 -6
    endloop
  endfacet
  facet normal 0 0 -1
    outer loop
      vertex -4 2.5 -6
      vertex -19.3673 -4.11665 -6
      vertex -5.06066 2.93934 -6
    endloop
  endfacet
  facet normal 0 0 -1
    outer loop
      vertex -5.06066 5.06066 -6
      vertex 9.9 17.1473 -6
      vertex -4 5.5 -6
    endloop
  endfacet
  facet normal 0 0 -1
    outer loop
      vertex -5.06066 2.93934 -6
      vertex -19.3673 -4.11665 -6
      vertex -5.5 4 -6
    endloop
  endfacet
  facet normal 0 0 -1
    outer loop
      vertex -19.3673 -4.11665 -6
      vertex 9.9 17.1473 -6
      vertex -5.06066 5.06066 -6
    endloop
  endfacet
  facet normal 0 0 -1
    outer loop
      vertex 4.61803 -2.09789 -6
      vertex 19.8 0 -6
      vertex 5.61803 -2.82443 -6
    endloop
  endfacet
  facet normal 0 0 -1
    outer loop
      vertex 6 -4 -6
      vertex 19.3673 -4.11665 -6
      vertex 5.61803 -5.17557 -6
    endloop
  endfacet
  facet normal 0 0 -1
    outer loop
      vertex 5.61803 -5.17557 -6
      vertex 19.3673 -4.11665 -6
      vertex 4.61803 -5.90211 -6
    endloop
  endfacet
  facet normal 0 0 -1
    outer loop
      vertex -1.57295 -5.76336 -6
      vertex 3.38197 -5.90211 -6
      vertex 18.0882 -8.05339 -6
    endloop
  endfacet
  facet normal 0 0 -1
    outer loop
      vertex 3.38197 -5.90211 -6
      vertex 4.61803 -5.90211 -6
      vertex 18.0882 -8.05339 -6
    endloop
  endfacet
  facet normal 0 0 -1
    outer loop
      vertex 5.61803 -2.82443 -6
      vertex 19.8 0 -6
      vertex 6 -4 -6
    endloop
  endfacet
  facet normal 0 0 -1
    outer loop
      vertex 2.38197 -5.17557 -6
      vertex -1 -4 -6
      vertex 2 -4 -6
    endloop
  endfacet
  facet normal 0 0 -1
    outer loop
      vertex 3.38197 -2.09789 -6
      vertex 19.8 0 -6
      vertex 4.61803 -2.09789 -6
    endloop
  endfacet
  facet normal 0 0 -1
    outer loop
      vertex -6.42705 -5.76336 -6
      vertex -19.3673 -4.11665 -6
      vertex -7 -4 -6
    endloop
  endfacet
  facet normal 0 0 -1
    outer loop
      vertex -1.57295 -2.23664 -6
      vertex 2.38197 -2.82443 -6
      vertex -1 -4 -6
    endloop
  endfacet
  facet normal 0 0 -1
    outer loop
      vertex 2 4 -6
      vertex -4 2.5 -6
      vertex -2.93934 2.93934 -6
    endloop
  endfacet
  facet normal 0 0 -1
    outer loop
      vertex -19.3673 -4.11665 -6
      vertex -4 2.5 -6
      vertex 2 4 -6
    endloop
  endfacet
  facet normal 0 0 -1
    outer loop
      vertex 5.61803 2.82443 -6
      vertex 19.3673 4.11665 -6
      vertex 4.61803 2.09789 -6
    endloop
  endfacet
  facet normal 0 0 -1
    outer loop
      vertex -19.3673 -4.11665 -6
      vertex 2.38197 2.82443 -6
      vertex 3.38197 2.09789 -6
    endloop
  endfacet
  facet normal 0 0 -1
    outer loop
      vertex -19.3673 -4.11665 -6
      vertex 3.38197 2.09789 -6
      vertex 4.61803 2.09789 -6
    endloop
  endfacet
  facet normal 0 0 -1
    outer loop
      vertex -19.3673 -4.11665 -6
      vertex 4.61803 2.09789 -6
      vertex 19.3673 4.11665 -6
    endloop
  endfacet
  facet normal 0 0 -1
    outer loop
      vertex 6 4 -6
      vertex 19.3673 4.11665 -6
      vertex 5.61803 2.82443 -6
    endloop
  endfacet
  facet normal 0 0 -1
    outer loop
      vertex 5.61803 5.17557 -6
      vertex 18.0882 8.05339 -6
      vertex 6 4 -6
    endloop
  endfacet
  facet normal 0 0 -1
    outer loop
      vertex 4.61803 5.90211 -6
      vertex 16.0185 11.6381 -6
      vertex 5.61803 5.17557 -6
    endloop
  endfacet
  facet normal 0 0 -1
    outer loop
      vertex -2.5 4 -6
      vertex 16.0185 11.6381 -6
      vertex 3.38197 5.90211 -6
    endloop
  endfacet
  facet normal 0 0 -1
    outer loop
      vertex -7 -4 -6
      vertex -19.3673 -4.11665 -6
      vertex -6.42705 -2.23664 -6
    endloop
  endfacet
  facet normal 0 0 -1
    outer loop
      vertex -1.57295 -2.23664 -6
      vertex 19.8 0 -6
      vertex 3.38197 -2.09789 -6
    endloop
  endfacet
  facet normal 0 0 -1
    outer loop
      vertex 2 4 -6
      vertex -2.93934 2.93934 -6
      vertex 2.38197 5.17557 -6
    endloop
  endfacet
  facet normal 0 0 -1
    outer loop
      vertex -6.42705 -2.23664 -6
      vertex -19.3673 -4.11665 -6
      vertex -4.92705 -1.14683 -6
    endloop
  endfacet
  facet normal -0.994522 0.104529 0
    outer loop
      vertex -19.8 0 -6
      vertex -19.8 0 6
      vertex -19.3673 4.11665 -6
    endloop
  endfacet
  facet normal -0.994522 0.104529 0
    outer loop
      vertex -19.3673 4.11665 -6
      vertex -19.8 0 6
      vertex -19.3673 4.11665 6
    endloop
  endfacet
  facet normal -0.994522 -0.104529 0
    outer loop
      vertex -19.8 0 -6
      vertex -19.3673 -4.11665 -6
      vertex -19.8 0 6
    endloop
  endfacet
  facet normal -0.994522 -0.104529 0
    outer loop
      vertex -19.8 0 6
      vertex -19.3673 -4.11665 -6
      vertex -19.3673 -4.11665 6
    endloop
  endfacet
  facet normal -0.951057 -0.309017 0
    outer loop
      vertex -19.3673 -4.11665 -6
      vertex -18.0882 -8.05339 -6
      vertex -19.3673 -4.11665 6
    endloop
  endfacet
  facet normal -0.951057 -0.309017 0
    outer loop
      vertex -19.3673 -4.11665 6
      vertex -18.0882 -8.05339 -6
      vertex -18.0882 -8.05339 6
    endloop
  endfacet
  facet normal -0.866025 -0.5 0
    outer loop
      vertex -18.0882 -8.05339 -6
      vertex -16.0185 -11.6381 -6
      vertex -18.0882 -8.05339 6
    endloop
  endfacet
  facet normal -0.866025 -0.5 0
    outer loop
      vertex -18.0882 -8.05339 6
      vertex -16.0185 -11.6381 -6
      vertex -16.0185 -11.6381 6
    endloop
  endfacet
  facet normal -0.743145 -0.66913 0
    outer loop
      vertex -16.0185 -11.6381 -6
      vertex -13.2488 -14.7143 -6
      vertex -16.0185 -11.6381 6
    endloop
  endfacet
  facet normal -0.743145 -0.66913 0
    outer loop
      vertex -16.0185 -11.6381 6
      vertex -13.2488 -14.7143 -6
      vertex -13.2488 -14.7143 6
    endloop
  endfacet
  facet normal -0.587785 -0.809017 0
    outer loop
      vertex -13.2488 -14.7143 6
      vertex -13.2488 -14.7143 -6
      vertex -9.9 -17.1473 -6
    endloop
  endfacet
  facet normal -0.587785 -0.809017 0
    outer loop
      vertex -9.9 -17.1473 6
      vertex -13.2488 -14.7143 6
      vertex -9.9 -17.1473 -6
    endloop
  endfacet
  facet normal -0.406737 -0.913545 0
    outer loop
      vertex -9.9 -17.1473 6
      vertex -9.9 -17.1473 -6
      vertex -6.11854 -18.8309 -6
    endloop
  endfacet
  facet normal -0.406737 -0.913545 0
    outer loop
      vertex -6.11854 -18.8309 6
      vertex -9.9 -17.1473 6
      vertex -6.11854 -18.8309 -6
    endloop
  endfacet
  facet normal -0.207912 -0.978148 0
    outer loop
      vertex -6.11854 -18.8309 6
      vertex -6.11854 -18.8309 -6
      vertex -2.06966 -19.6915 -6
    endloop
  endfacet
  facet normal -0.207912 -0.978148 0
    outer loop
      vertex -2.06966 -19.6915 6
      vertex -6.11854 -18.8309 6
      vertex -2.06966 -19.6915 -6
    endloop
  endfacet
  facet normal 0 -1 0
    outer loop
      vertex -2.06966 -19.6915 6
      vertex -2.06966 -19.6915 -6
      vertex 2.06966 -19.6915 -6
    endloop
  endfacet
  facet normal 0 -1 0
    outer loop
      vertex 2.06966 -19.6915 6
      vertex -2.06966 -19.6915 6
      vertex 2.06966 -19.6915 -6
    endloop
  endfacet
  facet normal 0.207912 -0.978148 0
    outer loop
      vertex 2.06966 -19.6915 6
      vertex 2.06966 -19.6915 -6
      vertex 6.11854 -18.8309 -6
    endloop
  endfacet
  facet normal 0.207912 -0.978148 0
    outer loop
      vertex 6.11854 -18.8309 6
      vertex 2.06966 -19.6915 6
      vertex 6.11854 -18.8309 -6
    endloop
  endfacet
  facet normal 0.406737 -0.913545 0
    outer loop
      vertex 6.11854 -18.8309 6
      vertex 6.11854 -18.8309 -6
      vertex 9.9 -17.1473 -6
    endloop
  endfacet
  facet normal 0.406737 -0.913545 0
    outer loop
      vertex 9.9 -17.1473 6
      vertex 6.11854 -18.8309 6
      vertex 9.9 -17.1473 -6
    endloop
  endfacet
  facet normal 0.587785 -0.809017 0
    outer loop
      vertex 9.9 -17.1473 6
      vertex 9.9 -17.1473 -6
      vertex 13.2488 -14.7143 -6
    endloop
  endfacet
  facet normal 0.587785 -0.809017 0
    outer loop
      vertex 13.2488 -14.7143 6
      vertex 9.9 -17.1473 6
      vertex 13.2488 -14.7143 -6
    endloop
  endfacet
  facet normal 0.743145 -0.66913 0
    outer loop
      vertex 13.2488 -14.7143 6
      vertex 13.2488 -14.7143 -6
      vertex 16.0185 -11.6381 -6
    endloop
  endfacet
  facet normal 0.743145 -0.66913 0
    outer loop
      vertex 16.0185 -11.6381 6
      vertex 13.2488 -14.7143 6
      vertex 16.0185 -11.6381 -6
    endloop
  endfacet
  facet normal 0.866025 -0.5 0
    outer loop
      vertex 16.0185 -11.6381 6
      vertex 16.0185 -11.6381 -6
      vertex 18.0882 -8.05339 -6
    endloop
  endfacet
  facet normal 0.866025 -0.5 0
    outer loop
      vertex 18.0882 -8.05339 6
      vertex 16.0185 -11.6381 6
      vertex 18.0882 -8.05339 -6
    endloop
  endfacet
  facet normal 0.951057 -0.309017 0
    outer loop
      vertex 18.0882 -8.05339 6
      vertex 18.0882 -8.05339 -6
      vertex 19.3673 -4.11665 -6
    endloop
  endfacet
  facet normal 0.951057 -0.309017 0
    outer loop
      vertex 19.3673 -4.11665 6
      vertex 18.0882 -8.05339 6
      vertex 19.3673 -4.11665 -6
    endloop
  endfacet
  facet normal 0.994522 -0.104529 0
    outer loop
      vertex 19.3673 -4.11665 6
      vertex 19.3673 -4.11665 -6
      vertex 19.8 0 -6
    endloop
  endfacet
  facet normal 0.994522 -0.104529 0
    outer loop
      vertex 19.8 0 6
      vertex 19.3673 -4.11665 6
      vertex 19.8 0 -6
    endloop
  endfacet
  facet normal 0.994522 0.104529 0
    outer loop
      vertex 19.8 0 -6
      vertex 19.3673 4.11665 -6
      vertex 19.3673 4.11665 6
    endloop
  endfacet
  facet normal 0.994522 0.104529 0
    outer loop
      vertex 19.8 0 6
      vertex 19.8 0 -6
      vertex 19.3673 4.11665 6
    endloop
  endfacet
  facet normal 0.951057 0.309017 0
    outer loop
      vertex 19.3673 4.11665 -6
      vertex 18.0882 8.05339 -6
      vertex 18.0882 8.05339 6
    endloop
  endfacet
  facet normal 0.951057 0.309017 0
    outer loop
      vertex 19.3673 4.11665 6
      vertex 19.3673 4.11665 -6
      vertex 18.0882 8.05339 6
    endloop
  endfacet
  facet normal 0.866025 0.5 0
    outer loop
      vertex 18.0882 8.05339 -6
      vertex 16.0185 11.6381 -6
      vertex 16.0185 11.6381 6
    endloop
  endfacet
  facet normal 0.866025 0.5 0
    outer loop
      vertex 18.0882 8.05339 6
      vertex 18.0882 8.05339 -6
      vertex 16.0185 11.6381 6
    endloop
  endfacet
  facet normal 0.743145 0.66913 0
    outer loop
      vertex 16.0185 11.6381 -6
      vertex 13.2488 14.7143 -6
      vertex 13.2488 14.7143 6
    endloop
  endfacet
  facet normal 0.743145 0.66913 0
    outer loop
      vertex 16.0185 11.6381 6
      vertex 16.0185 11.6381 -6
      vertex 13.2488 14.7143 6
    endloop
  endfacet
  facet normal 0.587785 0.809017 0
    outer loop
      vertex 9.9 17.1473 -6
      vertex 9.9 17.1473 6
      vertex 13.2488 14.7143 -6
    endloop
  endfacet
  facet normal 0.587785 0.809017 0
    outer loop
      vertex 13.2488 14.7143 -6
      vertex 9.9 17.1473 6
      vertex 13.2488 14.7143 6
    endloop
  endfacet
  facet normal 0.406737 0.913545 0
    outer loop
      vertex 6.11854 18.8309 -6
      vertex 6.11854 18.8309 6
      vertex 9.9 17.1473 -6
    endloop
  endfacet
  facet normal 0.406737 0.913545 0
    outer loop
      vertex 9.9 17.1473 -6
      vertex 6.11854 18.8309 6
      vertex 9.9 17.1473 6
    endloop
  endfacet
  facet normal 0.207912 0.978148 0
    outer loop
      vertex 2.06966 19.6915 -6
      vertex 2.06966 19.6915 6
      vertex 6.11854 18.8309 -6
    endloop
  endfacet
  facet normal 0.207912 0.978148 0
    outer loop
      vertex 6.11854 18.8309 -6
      vertex 2.06966 19.6915 6
      vertex 6.11854 18.8309 6
    endloop
  endfacet
  facet normal 0 1 0
    outer loop
      vertex -2.06966 19.6915 -6
      vertex -2.06966 19.6915 6
      vertex 2.06966 19.6915 -6
    endloop
  endfacet
  facet normal 0 1 0
    outer loop
      vertex 2.06966 19.6915 -6
      vertex -2.06966 19.6915 6
      vertex 2.06966 19.6915 6
    endloop
  endfacet
  facet normal -0.207912 0.978148 0
    outer loop
      vertex -6.11854 18.8309 -6
      vertex -6.11854 18.8309 6
      vertex -2.06966 19.6915 -6
    endloop
  endfacet
  facet normal -0.207912 0.978148 0
    outer loop
      vertex -2.06966 19.6915 -6
      vertex -6.11854 18.8309 6
      vertex -2.06966 19.6915 6
    endloop
  endfacet
  facet normal -0.406737 0.913545 0
    outer loop
      vertex -9.9 17.1473 -6
      vertex -9.9 17.1473 6
      vertex -6.11854 18.8309 -6
    endloop
  endfacet
  facet normal -0.406737 0.913545 0
    outer loop
      vertex -6.11854 18.8309 -6
      vertex -9.9 17.1473 6
      vertex -6.11854 18.8309 6
    endloop
  endfacet
  facet normal -0.587785 0.809017 0
    outer loop
      vertex -13.2488 14.7143 -6
      vertex -13.2488 14.7143 6
      vertex -9.9 17.1473 -6
    endloop
  endfacet
  facet normal -0.587785 0.809017 0
    outer loop
      vertex -9.9 17.1473 -6
      vertex -13.2488 14.7143 6
      vertex -9.9 17.1473 6
    endloop
  endfacet
  facet normal -0.743145 0.66913 0
    outer loop
      vertex -16.0185 11.6381 -6
      vertex -16.0185 11.6381 6
      vertex -13.2488 14.7143 -6
    endloop
  endfacet
  facet normal -0.743145 0.66913 0
    outer loop
      vertex -13.2488 14.7143 -6
      vertex -16.0185 11.6381 6
      vertex -13.2488 14.7143 6
    endloop
  endfacet
  facet normal -0.866025 0.5 0
    outer loop
      vertex -18.0882 8.05339 -6
      vertex -18.0882 8.05339 6
      vertex -16.0185 11.6381 -6
    endloop
  endfacet
  facet normal -0.866025 0.5 0
    outer loop
      vertex -16.0185 11.6381 -6
      vertex -18.0882 8.05339 6
      vertex -16.0185 11.6381 6
    endloop
  endfacet
  facet normal -0.951057 0.309017 0
    outer loop
      vertex -19.3673 4.11665 -6
      vertex -19.3673 4.11665 6
      vertex -18.0882 8.05339 -6
    endloop
  endfacet
  facet normal -0.951057 0.309017 0
    outer loop
      vertex -18.0882 8.05339 -6
      vertex -19.3673 4.11665 6
      vertex -18.0882 8.05339 6
    endloop
  endfacet
  facet normal 0.951057 0.309017 0
    outer loop
      vertex -7 -4 0
      vertex -6.42705 -5.76336 0
      vertex -6.42705 -5.76336 -6
    endloop
  endfacet
  facet normal 0.951057 0.309017 0
    outer loop
      vertex -7 -4 -6
      vertex -7 -4 0
      vertex -6.42705 -5.76336 -6
    endloop
  endfacet
  facet normal 0.951057 -0.309017 0
    outer loop
      vertex -6.42705 -2.23664 -6
      vertex -6.42705 -2.23664 6
      vertex -6.67508 -3 6
    endloop
  endfacet
  facet normal 0.951057 -0.309017 0
    outer loop
      vertex -7 -4 0
      vertex -6.42705 -2.23664 -6
      vertex -6.67508 -3 0
    endloop
  endfacet
  facet normal 0.951057 -0.309017 0
    outer loop
      vertex -6.67508 -3 0
      vertex -6.42705 -2.23664 -6
      vertex -6.67508 -3 6
    endloop
  endfacet
  facet normal 0.951057 -0.309017 0
    outer loop
      vertex -7 -4 -6
      vertex -6.42705 -2.23664 -6
      vertex -7 -4 0
    endloop
  endfacet
  facet normal 0.587785 -0.809017 0
    outer loop
      vertex -4.92705 -1.14683 -6
      vertex -4.92705 -1.14683 0
      vertex -5.67655 -1.69137 0
    endloop
  endfacet
  facet normal 0.587785 -0.809017 0
    outer loop
      vertex -6.42705 -2.23664 6
      vertex -4.92705 -1.14683 -6
      vertex -5.67655 -1.69137 0
    endloop
  endfacet
  facet normal 0.587785 -0.809017 0
    outer loop
      vertex -5.67655 -1.69137 6
      vertex -6.42705 -2.23664 6
      vertex -5.67655 -1.69137 0
    endloop
  endfacet
  facet normal 0.587785 -0.809017 0
    outer loop
      vertex -6.42705 -2.23664 6
      vertex -6.42705 -2.23664 -6
      vertex -4.92705 -1.14683 -6
    endloop
  endfacet
  facet normal 0 -1 0
    outer loop
      vertex -3.07295 -1.14683 -6
      vertex -3.07295 -1.14683 0
      vertex -4.92705 -1.14683 0
    endloop
  endfacet
  facet normal 0 -1 0
    outer loop
      vertex -4.92705 -1.14683 -6
      vertex -3.07295 -1.14683 -6
      vertex -4.92705 -1.14683 0
    endloop
  endfacet
  facet normal -0.587785 -0.809017 0
    outer loop
      vertex -1.57295 -2.23664 -6
      vertex -1.57295 -2.23664 0
      vertex -3.07295 -1.14683 0
    endloop
  endfacet
  facet normal -0.587785 -0.809017 0
    outer loop
      vertex -3.07295 -1.14683 -6
      vertex -1.57295 -2.23664 -6
      vertex -3.07295 -1.14683 0
    endloop
  endfacet
  facet normal -0.951057 -0.309017 0
    outer loop
      vertex -1 -4 0
      vertex -1.57295 -2.23664 0
      vertex -1 -4 -6
    endloop
  endfacet
  facet normal -0.951057 -0.309017 0
    outer loop
      vertex -1 -4 -6
      vertex -1.57295 -2.23664 0
      vertex -1.57295 -2.23664 -6
    endloop
  endfacet
  facet normal -0.951057 0.309017 0
    outer loop
      vertex -1.55593 -5.71096 6
      vertex -1.55593 -5.71096 0
      vertex -1.57295 -5.76336 6
    endloop
  endfacet
  facet normal -0.951057 0.309017 0
    outer loop
      vertex -1 -4 -6
      vertex -1.55593 -5.71096 0
      vertex -1 -4 0
    endloop
  endfacet
  facet normal -0.951057 0.309017 0
    outer loop
      vertex -1.57295 -5.76336 -6
      vertex -1.55593 -5.71096 0
      vertex -1 -4 -6
    endloop
  endfacet
  facet normal -0.951057 0.309017 0
    outer loop
      vertex -1.57295 -5.76336 6
      vertex -1.55593 -5.71096 0
      vertex -1.57295 -5.76336 -6
    endloop
  endfacet
  facet normal -0.587785 0.809017 0
    outer loop
      vertex -3 -6.80017 0
      vertex -3 -6.80017 6
      vertex -1.57295 -5.76336 6
    endloop
  endfacet
  facet normal -0.587785 0.809017 0
    outer loop
      vertex -3 -6.80017 0
      vertex -1.57295 -5.76336 6
      vertex -1.57295 -5.76336 -6
    endloop
  endfacet
  facet normal -0.587785 0.809017 0
    outer loop
      vertex -3 -6.80017 0
      vertex -1.57295 -5.76336 -6
      vertex -3.07295 -6.85317 0
    endloop
  endfacet
  facet normal -0.587785 0.809017 0
    outer loop
      vertex -1.57295 -5.76336 -6
      vertex -3.07295 -6.85317 -6
      vertex -3.07295 -6.85317 0
    endloop
  endfacet
  facet normal 0 1 0
    outer loop
      vertex -3.07295 -6.85317 0
      vertex -3.07295 -6.85317 -6
      vertex -4.92705 -6.85317 0
    endloop
  endfacet
  facet normal 0 1 0
    outer loop
      vertex -4.92705 -6.85317 0
      vertex -3.07295 -6.85317 -6
      vertex -4.92705 -6.85317 -6
    endloop
  endfacet
  facet normal 0.587785 0.809017 0
    outer loop
      vertex -4.92705 -6.85317 0
      vertex -4.92705 -6.85317 -6
      vertex -6.42705 -5.76336 0
    endloop
  endfacet
  facet normal 0.587785 0.809017 0
    outer loop
      vertex -6.42705 -5.76336 0
      vertex -4.92705 -6.85317 -6
      vertex -6.42705 -5.76336 -6
    endloop
  endfacet
  facet normal 0.923879 -0.382684 0
    outer loop
      vertex -5.06066 5.06066 -6
      vertex -5.06066 5.06066 0
      vertex -5.5 4 0
    endloop
  endfacet
  facet normal 0.923879 -0.382684 0
    outer loop
      vertex -5.5 4 -6
      vertex -5.06066 5.06066 -6
      vertex -5.5 4 0
    endloop
  endfacet
  facet normal 0.923879 0.382684 0
    outer loop
      vertex -5.5 4 0
      vertex -5.06066 2.93934 0
      vertex -5.06066 2.93934 -6
    endloop
  endfacet
  facet normal 0.923879 0.382684 0
    outer loop
      vertex -5.5 4 -6
      vertex -5.5 4 0
      vertex -5.06066 2.93934 -6
    endloop
  endfacet
  facet normal 0.382684 -0.923879 0
    outer loop
      vertex -4 5.5 -6
      vertex -4 5.5 0
      vertex -5.06066 5.06066 0
    endloop
  endfacet
  facet normal 0.382684 -0.923879 0
    outer loop
      vertex -5.06066 5.06066 -6
      vertex -4 5.5 -6
      vertex -5.06066 5.06066 0
    endloop
  endfacet
  facet normal -0.382684 -0.923879 0
    outer loop
      vertex -2.93934 5.06066 -6
      vertex -2.93934 5.06066 0
      vertex -4 5.5 0
    endloop
  endfacet
  facet normal -0.382684 -0.923879 0
    outer loop
      vertex -4 5.5 -6
      vertex -2.93934 5.06066 -6
      vertex -4 5.5 0
    endloop
  endfacet
  facet normal -0.923879 -0.382684 0
    outer loop
      vertex -2.5 4 0
      vertex -2.93934 5.06066 0
      vertex -2.5 4 -6
    endloop
  endfacet
  facet normal -0.923879 -0.382684 0
    outer loop
      vertex -2.5 4 -6
      vertex -2.93934 5.06066 0
      vertex -2.93934 5.06066 -6
    endloop
  endfacet
  facet normal -0.923879 0.382684 0
    outer loop
      vertex -2.5 4 0
      vertex -2.5 4 -6
      vertex -2.93934 2.93934 0
    endloop
  endfacet
  facet normal -0.923879 0.382684 0
    outer loop
      vertex -2.93934 2.93934 0
      vertex -2.5 4 -6
      vertex -2.93934 2.93934 -6
    endloop
  endfacet
  facet normal -0.382684 0.923879 0
    outer loop
      vertex -2.93934 2.93934 0
      vertex -2.93934 2.93934 -6
      vertex -4 2.5 0
    endloop
  endfacet
  facet normal -0.382684 0.923879 0
    outer loop
      vertex -4 2.5 0
      vertex -2.93934 2.93934 -6
      vertex -4 2.5 -6
    endloop
  endfacet
  facet normal 0.382684 0.923879 0
    outer loop
      vertex -4 2.5 0
      vertex -4 2.5 -6
      vertex -5.06066 2.93934 0
    endloop
  endfacet
  facet normal 0.382684 0.923879 0
    outer loop
      vertex -5.06066 2.93934 0
      vertex -4 2.5 -6
      vertex -5.06066 2.93934 -6
    endloop
  endfacet
  facet normal 0.951057 -0.309017 0
    outer loop
      vertex 2.38197 -2.82443 -6
      vertex 2.38197 -2.82443 0
      vertex 2 -4 0
    endloop
  endfacet
  facet normal 0.951057 -0.309017 0
    outer loop
      vertex 2 -4 -6
      vertex 2.38197 -2.82443 -6
      vertex 2 -4 0
    endloop
  endfacet
  facet normal 0.951057 0.309017 0
    outer loop
      vertex 2 -4 0
      vertex 2.38197 -5.17557 0
      vertex 2.38197 -5.17557 -6
    endloop
  endfacet
  facet normal 0.951057 0.309017 0
    outer loop
      vertex 2 -4 -6
      vertex 2 -4 0
      vertex 2.38197 -5.17557 -6
    endloop
  endfacet
  facet normal 0.587785 -0.809017 0
    outer loop
      vertex 3.38197 -2.09789 -6
      vertex 3.38197 -2.09789 0
      vertex 2.38197 -2.82443 0
    endloop
  endfacet
  facet normal 0.587785 -0.809017 0
    outer loop
      vertex 2.38197 -2.82443 -6
      vertex 3.38197 -2.09789 -6
      vertex 2.38197 -2.82443 0
    endloop
  endfacet
  facet normal 0 -1 0
    outer loop
      vertex 4.61803 -2.09789 -6
      vertex 4.61803 -2.09789 0
      vertex 3.38197 -2.09789 0
    endloop
  endfacet
  facet normal 0 -1 0
    outer loop
      vertex 3.38197 -2.09789 -6
      vertex 4.61803 -2.09789 -6
      vertex 3.38197 -2.09789 0
    endloop
  endfacet
  facet normal -0.587785 -0.809017 0
    outer loop
      vertex 5.61803 -2.82443 -6
      vertex 5.61803 -2.82443 6
      vertex 5.31849 -2.6068 6
    endloop
  endfacet
  facet normal -0.587785 -0.809017 0
    outer loop
      vertex 4.61803 -2.09789 0
      vertex 5.61803 -2.82443 -6
      vertex 5.31849 -2.6068 0
    endloop
  endfacet
  facet normal -0.587785 -0.809017 0
    outer loop
      vertex 5.31849 -2.6068 0
      vertex 5.61803 -2.82443 -6
      vertex 5.31849 -2.6068 6
    endloop
  endfacet
  facet normal -0.587785 -0.809017 0
    outer loop
      vertex 4.61803 -2.09789 -6
      vertex 5.61803 -2.82443 -6
      vertex 4.61803 -2.09789 0
    endloop
  endfacet
  facet normal -0.951057 -0.309017 0
    outer loop
      vertex 6 -4 0
      vertex 5.67508 -3 0
      vertex 6 -4 -6
    endloop
  endfacet
  facet normal -0.951057 -0.309017 0
    outer loop
      vertex 5.61803 -2.82443 6
      vertex 5.67508 -3 0
      vertex 5.67508 -3 6
    endloop
  endfacet
  facet normal -0.951057 -0.309017 0
    outer loop
      vertex 5.61803 -2.82443 -6
      vertex 5.67508 -3 0
      vertex 5.61803 -2.82443 6
    endloop
  endfacet
  facet normal -0.951057 -0.309017 0
    outer loop
      vertex 6 -4 -6
      vertex 5.67508 -3 0
      vertex 5.61803 -2.82443 -6
    endloop
  endfacet
  facet normal -0.951057 0.309017 0
    outer loop
      vertex 6 -4 0
      vertex 6 -4 -6
      vertex 5.61803 -5.17557 0
    endloop
  endfacet
  facet normal -0.951057 0.309017 0
    outer loop
      vertex 5.61803 -5.17557 0
      vertex 6 -4 -6
      vertex 5.61803 -5.17557 -6
    endloop
  endfacet
  facet normal -0.587785 0.809017 0
    outer loop
      vertex 5.61803 -5.17557 0
      vertex 5.61803 -5.17557 -6
      vertex 4.61803 -5.90211 0
    endloop
  endfacet
  facet normal -0.587785 0.809017 0
    outer loop
      vertex 4.61803 -5.90211 0
      vertex 5.61803 -5.17557 -6
      vertex 4.61803 -5.90211 -6
    endloop
  endfacet
  facet normal 0 1 0
    outer loop
      vertex 4.61803 -5.90211 0
      vertex 4.61803 -5.90211 -6
      vertex 3.38197 -5.90211 0
    endloop
  endfacet
  facet normal 0 1 0
    outer loop
      vertex 3.38197 -5.90211 0
      vertex 4.61803 -5.90211 -6
      vertex 3.38197 -5.90211 -6
    endloop
  endfacet
  facet normal 0.587785 0.809017 0
    outer loop
      vertex 2.58973 -5.32652 0
      vertex 2.58973 -5.32652 6
      vertex 3 -5.6246 6
    endloop
  endfacet
  facet normal 0.587785 0.809017 0
    outer loop
      vertex 2.58973 -5.32652 0
      vertex 3 -5.6246 6
      vertex 3 -5.6246 0
    endloop
  endfacet
  facet normal 0.587785 0.809017 0
    outer loop
      vertex 2.58973 -5.32652 0
      vertex 3.38197 -5.90211 -6
      vertex 2.38197 -5.17557 0
    endloop
  endfacet
  facet normal 0.587785 0.809017 0
    outer loop
      vertex 3 -5.6246 0
      vertex 3.38197 -5.90211 0
      vertex 3.38197 -5.90211 -6
    endloop
  endfacet
  facet normal 0.587785 0.809017 0
    outer loop
      vertex 3 -5.6246 0
      vertex 3.38197 -5.90211 -6
      vertex 2.58973 -5.32652 0
    endloop
  endfacet
  facet normal 0.587785 0.809017 0
    outer loop
      vertex 3.38197 -5.90211 -6
      vertex 2.38197 -5.17557 -6
      vertex 2.38197 -5.17557 0
    endloop
  endfacet
  facet normal 0.951057 -0.309017 0
    outer loop
      vertex 2.38197 5.17557 -6
      vertex 2.38197 5.17557 0
      vertex 2 4 0
    endloop
  endfacet
  facet normal 0.951057 -0.309017 0
    outer loop
      vertex 2 4 -6
      vertex 2.38197 5.17557 -6
      vertex 2 4 0
    endloop
  endfacet
  facet normal 0.951057 0.309017 0
    outer loop
      vertex 2 4 0
      vertex 2.38197 2.82443 0
      vertex 2.38197 2.82443 -6
    endloop
  endfacet
  facet normal 0.951057 0.309017 0
    outer loop
      vertex 2 4 -6
      vertex 2 4 0
      vertex 2.38197 2.82443 -6
    endloop
  endfacet
  facet normal 0.587785 -0.809017 0
    outer loop
      vertex 2.58973 5.32652 0
      vertex 2.38197 5.17557 0
      vertex 3.38197 5.90211 -6
    endloop
  endfacet
  facet normal 0.587785 -0.809017 0
    outer loop
      vertex 3.38197 5.90211 -6
      vertex 3.38197 5.90211 0
      vertex 3 5.6246 0
    endloop
  endfacet
  facet normal 0.587785 -0.809017 0
    outer loop
      vertex 2.58973 5.32652 6
      vertex 3.38197 5.90211 -6
      vertex 3 5.6246 0
    endloop
  endfacet
  facet normal 0.587785 -0.809017 0
    outer loop
      vertex 3 5.6246 6
      vertex 2.58973 5.32652 6
      vertex 3 5.6246 0
    endloop
  endfacet
  facet normal 0.587785 -0.809017 0
    outer loop
      vertex 2.58973 5.32652 6
      vertex 2.58973 5.32652 0
      vertex 3.38197 5.90211 -6
    endloop
  endfacet
  facet normal 0.587785 -0.809017 0
    outer loop
      vertex 2.38197 5.17557 0
      vertex 2.38197 5.17557 -6
      vertex 3.38197 5.90211 -6
    endloop
  endfacet
  facet normal 0 -1 0
    outer loop
      vertex 4.61803 5.90211 -6
      vertex 4.61803 5.90211 0
      vertex 3.38197 5.90211 0
    endloop
  endfacet
  facet normal 0 -1 0
    outer loop
      vertex 3.38197 5.90211 -6
      vertex 4.61803 5.90211 -6
      vertex 3.38197 5.90211 0
    endloop
  endfacet
  facet normal -0.587785 -0.809017 0
    outer loop
      vertex 5.61803 5.17557 -6
      vertex 5.61803 5.17557 0
      vertex 4.61803 5.90211 0
    endloop
  endfacet
  facet normal -0.587785 -0.809017 0
    outer loop
      vertex 4.61803 5.90211 -6
      vertex 5.61803 5.17557 -6
      vertex 4.61803 5.90211 0
    endloop
  endfacet
  facet normal -0.951057 -0.309017 0
    outer loop
      vertex 6 4 0
      vertex 5.61803 5.17557 0
      vertex 6 4 -6
    endloop
  endfacet
  facet normal -0.951057 -0.309017 0
    outer loop
      vertex 6 4 -6
      vertex 5.61803 5.17557 0
      vertex 5.61803 5.17557 -6
    endloop
  endfacet
  facet normal -0.951057 0.309017 0
    outer loop
      vertex 5.67508 3 6
      vertex 5.67508 3 0
      vertex 5.61803 2.82443 6
    endloop
  endfacet
  facet normal -0.951057 0.309017 0
    outer loop
      vertex 6 4 -6
      vertex 5.67508 3 0
      vertex 6 4 0
    endloop
  endfacet
  facet normal -0.951057 0.309017 0
    outer loop
      vertex 5.61803 2.82443 -6
      vertex 5.67508 3 0
      vertex 6 4 -6
    endloop
  endfacet
  facet normal -0.951057 0.309017 0
    outer loop
      vertex 5.61803 2.82443 6
      vertex 5.67508 3 0
      vertex 5.61803 2.82443 -6
    endloop
  endfacet
  facet normal -0.587785 0.809017 0
    outer loop
      vertex 5.31849 2.6068 0
      vertex 5.31849 2.6068 6
      vertex 5.61803 2.82443 6
    endloop
  endfacet
  facet normal -0.587785 0.809017 0
    outer loop
      vertex 5.31849 2.6068 0
      vertex 5.61803 2.82443 6
      vertex 5.61803 2.82443 -6
    endloop
  endfacet
  facet normal -0.587785 0.809017 0
    outer loop
      vertex 5.31849 2.6068 0
      vertex 5.61803 2.82443 -6
      vertex 4.61803 2.09789 0
    endloop
  endfacet
  facet normal -0.587785 0.809017 0
    outer loop
      vertex 5.61803 2.82443 -6
      vertex 4.61803 2.09789 -6
      vertex 4.61803 2.09789 0
    endloop
  endfacet
  facet normal 0 1 0
    outer loop
      vertex 4.61803 2.09789 0
      vertex 4.61803 2.09789 -6
      vertex 3.38197 2.09789 0
    endloop
  endfacet
  facet normal 0 1 0
    outer loop
      vertex 3.38197 2.09789 0
      vertex 4.61803 2.09789 -6
      vertex 3.38197 2.09789 -6
    endloop
  endfacet
  facet normal 0.587785 0.809017 0
    outer loop
      vertex 3.38197 2.09789 0
      vertex 3.38197 2.09789 -6
      vertex 2.38197 2.82443 0
    endloop
  endfacet
  facet normal 0.587785 0.809017 0
    outer loop
      vertex 2.38197 2.82443 0
      vertex 3.38197 2.09789 -6
      vertex 2.38197 2.82443 -6
    endloop
  endfacet
  facet normal 0 0 1
    outer loop
      vertex -19.3673 4.11665 6
      vertex -19.8 0 6
      vertex -19.3673 -4.11665 6
    endloop
  endfacet
  facet normal 0 0 1
    outer loop
      vertex -16.0185 -11.6381 6
      vertex -19.3673 4.11665 6
      vertex -18.0882 -8.05339 6
    endloop
  endfacet
  facet normal 0 0 1
    outer loop
      vertex -18.0882 -8.05339 6
      vertex -19.3673 4.11665 6
      vertex -19.3673 -4.11665 6
    endloop
  endfacet
  facet normal 0 0 1
    outer loop
      vertex -13.2488 -14.7143 6
      vertex -19.3673 4.11665 6
      vertex -16.0185 -11.6381 6
    endloop
  endfacet
  facet normal 0 0 1
    outer loop
      vertex -16.1394 -3.43054 6
      vertex -19.3673 4.11665 6
      vertex -13.2488 -14.7143 6
    endloop
  endfacet
  facet normal 0 0 1
    outer loop
      vertex 13.3488 -9.69846 6
      vertex 11.0407 -12.2619 6
      vertex 16.0185 -11.6381 6
    endloop
  endfacet
  facet normal 0 0 1
    outer loop
      vertex -16.1394 3.43054 6
      vertex -15.0735 6.71115 6
      vertex -19.3673 4.11665 6
    endloop
  endfacet
  facet normal 0 0 1
    outer loop
      vertex -1.72472 -16.4096 6
      vertex -5.09878 -15.6924 6
      vertex -2.06966 -19.6915 6
    endloop
  endfacet
  facet normal 0 0 1
    outer loop
      vertex 15.0735 6.71115 6
      vertex 16.1394 3.43054 6
      vertex 19.3673 4.11665 6
    endloop
  endfacet
  facet normal 0 0 1
    outer loop
      vertex 13.3488 9.69846 6
      vertex 15.0735 6.71115 6
      vertex 18.0882 8.05339 6
    endloop
  endfacet
  facet normal 0 0 1
    outer loop
      vertex 11.0407 12.2619 6
      vertex 13.3488 9.69846 6
      vertex 16.0185 11.6381 6
    endloop
  endfacet
  facet normal 0 0 1
    outer loop
      vertex 1.72472 16.4096 6
      vertex 5.09878 15.6924 6
      vertex 6.11854 18.8309 6
    endloop
  endfacet
  facet normal 0 0 1
    outer loop
      vertex -5.09878 15.6924 6
      vertex -1.72472 16.4096 6
      vertex 2.06966 19.6915 6
    endloop
  endfacet
  facet normal 0 0 1
    outer loop
      vertex -9.9 17.1473 6
      vertex -19.3673 4.11665 6
      vertex -6.11854 18.8309 6
    endloop
  endfacet
  facet normal 0 0 1
    outer loop
      vertex -13.2488 14.7143 6
      vertex -19.3673 4.11665 6
      vertex -9.9 17.1473 6
    endloop
  endfacet
  facet normal 0 0 1
    outer loop
      vertex -16.0185 11.6381 6
      vertex -19.3673 4.11665 6
      vertex -13.2488 14.7143 6
    endloop
  endfacet
  facet normal 0 0 1
    outer loop
      vertex -18.0882 8.05339 6
      vertex -19.3673 4.11665 6
      vertex -16.0185 11.6381 6
    endloop
  endfacet
  facet normal 0 0 1
    outer loop
      vertex -15.0735 -6.71115 6
      vertex -16.1394 -3.43054 6
      vertex -13.2488 -14.7143 6
    endloop
  endfacet
  facet normal 0 0 1
    outer loop
      vertex 15.0735 -6.71115 6
      vertex 13.3488 -9.69846 6
      vertex 18.0882 -8.05339 6
    endloop
  endfacet
  facet normal 0 0 1
    outer loop
      vertex 5.09878 15.6924 6
      vertex 8.25 14.2894 6
      vertex 9.9 17.1473 6
    endloop
  endfacet
  facet normal 0 0 1
    outer loop
      vertex -6.11854 18.8309 6
      vertex -19.3673 4.11665 6
      vertex -13.3488 9.69846 6
    endloop
  endfacet
  facet normal 0 0 1
    outer loop
      vertex -6.11854 18.8309 6
      vertex -11.0407 12.2619 6
      vertex -2.06966 19.6915 6
    endloop
  endfacet
  facet normal 0 0 1
    outer loop
      vertex -6.11854 18.8309 6
      vertex -13.3488 9.69846 6
      vertex -11.0407 12.2619 6
    endloop
  endfacet
  facet normal 0 0 1
    outer loop
      vertex -11.0407 12.2619 6
      vertex -8.25 14.2894 6
      vertex -2.06966 19.6915 6
    endloop
  endfacet
  facet normal 0 0 1
    outer loop
      vertex -2.06966 19.6915 6
      vertex -5.09878 15.6924 6
      vertex 2.06966 19.6915 6
    endloop
  endfacet
  facet normal 0 0 1
    outer loop
      vertex -8.25 14.2894 6
      vertex -5.09878 15.6924 6
      vertex -2.06966 19.6915 6
    endloop
  endfacet
  facet normal 0 0 1
    outer loop
      vertex 2.06966 19.6915 6
      vertex -1.72472 16.4096 6
      vertex 6.11854 18.8309 6
    endloop
  endfacet
  facet normal 0 0 1
    outer loop
      vertex -1.72472 16.4096 6
      vertex 1.72472 16.4096 6
      vertex 6.11854 18.8309 6
    endloop
  endfacet
  facet normal 0 0 1
    outer loop
      vertex 6.11854 18.8309 6
      vertex 5.09878 15.6924 6
      vertex 9.9 17.1473 6
    endloop
  endfacet
  facet normal 0 0 1
    outer loop
      vertex 16.1394 3.43054 6
      vertex 16.5 0 6
      vertex 19.8 0 6
    endloop
  endfacet
  facet normal 0 0 1
    outer loop
      vertex 9.9 17.1473 6
      vertex 8.25 14.2894 6
      vertex 13.2488 14.7143 6
    endloop
  endfacet
  facet normal 0 0 1
    outer loop
      vertex -15.0735 6.71115 6
      vertex -13.3488 9.69846 6
      vertex -19.3673 4.11665 6
    endloop
  endfacet
  facet normal 0 0 1
    outer loop
      vertex 13.2488 14.7143 6
      vertex 11.0407 12.2619 6
      vertex 16.0185 11.6381 6
    endloop
  endfacet
  facet normal 0 0 1
    outer loop
      vertex 16.0185 11.6381 6
      vertex 13.3488 9.69846 6
      vertex 18.0882 8.05339 6
    endloop
  endfacet
  facet normal 0 0 1
    outer loop
      vertex 18.0882 8.05339 6
      vertex 15.0735 6.71115 6
      vertex 19.3673 4.11665 6
    endloop
  endfacet
  facet normal 0 0 1
    outer loop
      vertex 19.3673 4.11665 6
      vertex 16.1394 3.43054 6
      vertex 19.8 0 6
    endloop
  endfacet
  facet normal 0 0 1
    outer loop
      vertex 19.8 0 6
      vertex 16.5 0 6
      vertex 19.3673 -4.11665 6
    endloop
  endfacet
  facet normal 0 0 1
    outer loop
      vertex 19.3673 -4.11665 6
      vertex 16.1394 -3.43054 6
      vertex 18.0882 -8.05339 6
    endloop
  endfacet
  facet normal 0 0 1
    outer loop
      vertex 8.25 14.2894 6
      vertex 11.0407 12.2619 6
      vertex 13.2488 14.7143 6
    endloop
  endfacet
  facet normal 0 0 1
    outer loop
      vertex 16.1394 -3.43054 6
      vertex 15.0735 -6.71115 6
      vertex 18.0882 -8.05339 6
    endloop
  endfacet
  facet normal 0 0 1
    outer loop
      vertex 18.0882 -8.05339 6
      vertex 13.3488 -9.69846 6
      vertex 16.0185 -11.6381 6
    endloop
  endfacet
  facet normal 0 0 1
    outer loop
      vertex 16.0185 -11.6381 6
      vertex 11.0407 -12.2619 6
      vertex 13.2488 -14.7143 6
    endloop
  endfacet
  facet normal 0 0 1
    outer loop
      vertex 13.2488 -14.7143 6
      vertex 8.25 -14.2894 6
      vertex 9.9 -17.1473 6
    endloop
  endfacet
  facet normal 0 0 1
    outer loop
      vertex 9.9 -17.1473 6
      vertex 5.09878 -15.6924 6
      vertex 6.11854 -18.8309 6
    endloop
  endfacet
  facet normal 0 0 1
    outer loop
      vertex 6.11854 -18.8309 6
      vertex 1.72472 -16.4096 6
      vertex 2.06966 -19.6915 6
    endloop
  endfacet
  facet normal 0 0 1
    outer loop
      vertex 16.5 0 6
      vertex 16.1394 -3.43054 6
      vertex 19.3673 -4.11665 6
    endloop
  endfacet
  facet normal 0 0 1
    outer loop
      vertex 2.06966 -19.6915 6
      vertex -1.72472 -16.4096 6
      vertex -2.06966 -19.6915 6
    endloop
  endfacet
  facet normal 0 0 1
    outer loop
      vertex -2.06966 -19.6915 6
      vertex -5.09878 -15.6924 6
      vertex -6.11854 -18.8309 6
    endloop
  endfacet
  facet normal 0 0 1
    outer loop
      vertex -5.09878 -15.6924 6
      vertex -8.25 -14.2894 6
      vertex -6.11854 -18.8309 6
    endloop
  endfacet
  facet normal 0 0 1
    outer loop
      vertex -6.11854 -18.8309 6
      vertex -11.0407 -12.2619 6
      vertex -9.9 -17.1473 6
    endloop
  endfacet
  facet normal 0 0 1
    outer loop
      vertex -9.9 -17.1473 6
      vertex -13.3488 -9.69846 6
      vertex -13.2488 -14.7143 6
    endloop
  endfacet
  facet normal 0 0 1
    outer loop
      vertex -13.3488 -9.69846 6
      vertex -15.0735 -6.71115 6
      vertex -13.2488 -14.7143 6
    endloop
  endfacet
  facet normal 0 0 1
    outer loop
      vertex -16.1394 -3.43054 6
      vertex -16.5 0 6
      vertex -19.3673 4.11665 6
    endloop
  endfacet
  facet normal 0 0 1
    outer loop
      vertex 11.0407 -12.2619 6
      vertex 8.25 -14.2894 6
      vertex 13.2488 -14.7143 6
    endloop
  endfacet
  facet normal 0 0 1
    outer loop
      vertex 8.25 -14.2894 6
      vertex 5.09878 -15.6924 6
      vertex 9.9 -17.1473 6
    endloop
  endfacet
  facet normal 0 0 1
    outer loop
      vertex 5.09878 -15.6924 6
      vertex 1.72472 -16.4096 6
      vertex 6.11854 -18.8309 6
    endloop
  endfacet
  facet normal 0 0 1
    outer loop
      vertex 1.72472 -16.4096 6
      vertex -1.72472 -16.4096 6
      vertex 2.06966 -19.6915 6
    endloop
  endfacet
  facet normal 0 0 1
    outer loop
      vertex -11.0407 -12.2619 6
      vertex -13.3488 -9.69846 6
      vertex -9.9 -17.1473 6
    endloop
  endfacet
  facet normal 0 0 1
    outer loop
      vertex -8.25 -14.2894 6
      vertex -11.0407 -12.2619 6
      vertex -6.11854 -18.8309 6
    endloop
  endfacet
  facet normal 0 0 1
    outer loop
      vertex -16.5 0 6
      vertex -16.1394 3.43054 6
      vertex -19.3673 4.11665 6
    endloop
  endfacet
  facet normal 0 0 1
    outer loop
      vertex -16.1394 -3.43054 0
      vertex -15.0735 -6.71115 0
      vertex -13.3488 -9.69846 0
    endloop
  endfacet
  facet normal 0 0 1
    outer loop
      vertex -8.25 -14.2894 0
      vertex -16.1394 -3.43054 0
      vertex -11.0407 -12.2619 0
    endloop
  endfacet
  facet normal 0 0 1
    outer loop
      vertex -11.0407 -12.2619 0
      vertex -16.1394 -3.43054 0
      vertex -13.3488 -9.69846 0
    endloop
  endfacet
  facet normal 0 0 1
    outer loop
      vertex -5.09878 -15.6924 0
      vertex -16.1394 -3.43054 0
      vertex -8.25 -14.2894 0
    endloop
  endfacet
  facet normal 0 0 1
    outer loop
      vertex -1.72472 -16.4096 0
      vertex -16.1394 -3.43054 0
      vertex -5.09878 -15.6924 0
    endloop
  endfacet
  facet normal 0 0 1
    outer loop
      vertex 1.72472 -16.4096 0
      vertex -16.1394 -3.43054 0
      vertex -1.72472 -16.4096 0
    endloop
  endfacet
  facet normal 0 0 1
    outer loop
      vertex 5.09878 -15.6924 0
      vertex -16.1394 -3.43054 0
      vertex 1.72472 -16.4096 0
    endloop
  endfacet
  facet normal 0 0 1
    outer loop
      vertex 8.25 -14.2894 0
      vertex -16.1394 -3.43054 0
      vertex 5.09878 -15.6924 0
    endloop
  endfacet
  facet normal 0 0 1
    outer loop
      vertex -3 -8.45276 0
      vertex -16.1394 -3.43054 0
      vertex 8.25 -14.2894 0
    endloop
  endfacet
  facet normal 0 0 1
    outer loop
      vertex 5.6749 -1.9482 0
      vertex -3.07295 -1.14683 0
      vertex -1.57295 -2.23664 0
    endloop
  endfacet
  facet normal 0 0 1
    outer loop
      vertex 2 4 0
      vertex -2.93934 2.93934 0
      vertex -4 2.5 0
    endloop
  endfacet
  facet normal 0 0 1
    outer loop
      vertex 3 -5.6246 0
      vertex 3 -8.43598 0
      vertex 3.38197 -5.90211 0
    endloop
  endfacet
  facet normal 0 0 1
    outer loop
      vertex 0.48725 8.9868 0
      vertex 2.40775 8.67195 0
      vertex 8.25 14.2894 0
    endloop
  endfacet
  facet normal 0 0 1
    outer loop
      vertex -1.72472 16.4096 0
      vertex -16.1394 -3.43054 0
      vertex 1.72472 16.4096 0
    endloop
  endfacet
  facet normal 0 0 1
    outer loop
      vertex -5.09878 15.6924 0
      vertex -16.1394 -3.43054 0
      vertex -1.72472 16.4096 0
    endloop
  endfacet
  facet normal 0 0 1
    outer loop
      vertex -8.25 14.2894 0
      vertex -16.1394 -3.43054 0
      vertex -5.09878 15.6924 0
    endloop
  endfacet
  facet normal 0 0 1
    outer loop
      vertex -11.0407 12.2619 0
      vertex -16.1394 -3.43054 0
      vertex -8.25 14.2894 0
    endloop
  endfacet
  facet normal 0 0 1
    outer loop
      vertex -13.3488 9.69846 0
      vertex -16.1394 -3.43054 0
      vertex -11.0407 12.2619 0
    endloop
  endfacet
  facet normal 0 0 1
    outer loop
      vertex -15.0735 6.71115 0
      vertex -16.1394 -3.43054 0
      vertex -13.3488 9.69846 0
    endloop
  endfacet
  facet normal 0 0 1
    outer loop
      vertex -16.1394 3.43054 0
      vertex -16.1394 -3.43054 0
      vertex -15.0735 6.71115 0
    endloop
  endfacet
  facet normal 0 0 1
    outer loop
      vertex -16.5 0 0
      vertex -16.1394 -3.43054 0
      vertex -16.1394 3.43054 0
    endloop
  endfacet
  facet normal 0 0 1
    outer loop
      vertex -8.47045 3 0
      vertex -16.1394 -3.43054 0
      vertex -8.52888 2.87371 0
    endloop
  endfacet
  facet normal 0 0 1
    outer loop
      vertex 3.38197 -5.90211 0
      vertex 13.3488 -9.69846 0
      vertex 15.0735 -6.71115 0
    endloop
  endfacet
  facet normal 0 0 1
    outer loop
      vertex -1.45604 8.88144 0
      vertex 0.48725 8.9868 0
      vertex 8.25 14.2894 0
    endloop
  endfacet
  facet normal 0 0 1
    outer loop
      vertex -3 5.10929 0
      vertex -3 8.45276 0
      vertex -4 5.5 0
    endloop
  endfacet
  facet normal 0 0 1
    outer loop
      vertex 5.61803 5.17557 0
      vertex 6 4 0
      vertex 15.0735 6.71115 0
    endloop
  endfacet
  facet normal 0 0 1
    outer loop
      vertex -2.5 4 0
      vertex -2.93934 2.93934 0
      vertex 1.47291 5.8164 0
    endloop
  endfacet
  facet normal 0 0 1
    outer loop
      vertex 2 4 0
      vertex 2.38197 5.17557 0
      vertex -2.93934 2.93934 0
    endloop
  endfacet
  facet normal 0 0 1
    outer loop
      vertex 9 0 0
      vertex 8.78958 -1.93473 0
      vertex 16.5 0 0
    endloop
  endfacet
  facet normal 0 0 1
    outer loop
      vertex -5.06066 2.93934 0
      vertex -5.16452 3 0
      vertex -5.27684 2.85568 0
    endloop
  endfacet
  facet normal 0 0 1
    outer loop
      vertex 6 -4 0
      vertex 5.61803 -5.17557 0
      vertex 15.0735 -6.71115 0
    endloop
  endfacet
  facet normal 0 0 1
    outer loop
      vertex -3 -8.45276 0
      vertex -4.92705 -6.85317 0
      vertex -16.1394 -3.43054 0
    endloop
  endfacet
  facet normal 0 0 1
    outer loop
      vertex -3 -8.45276 0
      vertex -3.07295 -6.85317 0
      vertex -4.92705 -6.85317 0
    endloop
  endfacet
  facet normal 0 0 1
    outer loop
      vertex 1.47291 -5.8164 0
      vertex 2.58973 -5.32652 0
      vertex -1 -4 0
    endloop
  endfacet
  facet normal 0 0 1
    outer loop
      vertex -0.495476 -5.97951 0
      vertex 1.47291 -5.8164 0
      vertex -1.55593 -5.71096 0
    endloop
  endfacet
  facet normal 0 0 1
    outer loop
      vertex 5.6749 -1.9482 0
      vertex 6 0 0
      vertex -3.07295 -1.14683 0
    endloop
  endfacet
  facet normal 0 0 1
    outer loop
      vertex -1 -4 0
      vertex 2.58973 -5.32652 0
      vertex 2.38197 -5.17557 0
    endloop
  endfacet
  facet normal 0 0 1
    outer loop
      vertex 5.67508 -3 0
      vertex 6 -4 0
      vertex 16.1394 -3.43054 0
    endloop
  endfacet
  facet normal 0 0 1
    outer loop
      vertex 5.31849 -2.6068 0
      vertex 5.6749 -1.9482 0
      vertex 4.61803 -2.09789 0
    endloop
  endfacet
  facet normal 0 0 1
    outer loop
      vertex 6 0 0
      vertex -4.92705 -1.14683 0
      vertex -3.07295 -1.14683 0
    endloop
  endfacet
  facet normal 0 0 1
    outer loop
      vertex 6 0 0
      vertex -5.91817 -0.987568 0
      vertex -4.92705 -1.14683 0
    endloop
  endfacet
  facet normal 0 0 1
    outer loop
      vertex 8.43066 -3 0
      vertex 5.67508 -3 0
      vertex 16.1394 -3.43054 0
    endloop
  endfacet
  facet normal 0 0 1
    outer loop
      vertex 6 0 0
      vertex 5.6749 1.9482 0
      vertex -5.91817 -0.987568 0
    endloop
  endfacet
  facet normal 0 0 1
    outer loop
      vertex 8.78958 1.93473 0
      vertex 9 0 0
      vertex 16.1394 3.43054 0
    endloop
  endfacet
  facet normal 0 0 1
    outer loop
      vertex 4.61803 2.09789 0
      vertex -5.91817 -0.987568 0
      vertex 5.6749 1.9482 0
    endloop
  endfacet
  facet normal 0 0 1
    outer loop
      vertex 8.43066 3 0
      vertex 8.78958 1.93473 0
      vertex 16.1394 3.43054 0
    endloop
  endfacet
  facet normal 0 0 1
    outer loop
      vertex 5.31849 2.6068 0
      vertex 4.61803 2.09789 0
      vertex 5.6749 1.9482 0
    endloop
  endfacet
  facet normal 0 0 1
    outer loop
      vertex 3.38197 2.09789 0
      vertex 2.38197 2.82443 0
      vertex -5.91817 -0.987568 0
    endloop
  endfacet
  facet normal 0 0 1
    outer loop
      vertex 5.67508 3 0
      vertex 8.43066 3 0
      vertex 15.0735 6.71115 0
    endloop
  endfacet
  facet normal 0 0 1
    outer loop
      vertex 2.38197 2.82443 0
      vertex 2 4 0
      vertex -5.91817 0.987568 0
    endloop
  endfacet
  facet normal 0 0 1
    outer loop
      vertex -5.5 4 0
      vertex -5.06066 5.06066 0
      vertex -8.47045 3 0
    endloop
  endfacet
  facet normal 0 0 1
    outer loop
      vertex 4.61803 5.90211 0
      vertex 5.61803 5.17557 0
      vertex 13.3488 9.69846 0
    endloop
  endfacet
  facet normal 0 0 1
    outer loop
      vertex 6 4 0
      vertex 5.67508 3 0
      vertex 15.0735 6.71115 0
    endloop
  endfacet
  facet normal 0 0 1
    outer loop
      vertex -8.94724 0.973071 0
      vertex -8.52888 2.87371 0
      vertex -16.1394 -3.43054 0
    endloop
  endfacet
  facet normal 0 0 1
    outer loop
      vertex 3.38197 5.90211 0
      vertex 4.61803 5.90211 0
      vertex 13.3488 9.69846 0
    endloop
  endfacet
  facet normal 0 0 1
    outer loop
      vertex -5.27684 2.85568 0
      vertex -5.91817 0.987568 0
      vertex -4 2.5 0
    endloop
  endfacet
  facet normal 0 0 1
    outer loop
      vertex 1.72472 16.4096 0
      vertex -3 8.45276 0
      vertex 5.09878 15.6924 0
    endloop
  endfacet
  facet normal 0 0 1
    outer loop
      vertex 1.72472 16.4096 0
      vertex -16.1394 -3.43054 0
      vertex -3 8.45276 0
    endloop
  endfacet
  facet normal 0 0 1
    outer loop
      vertex 5.09878 15.6924 0
      vertex -1.45604 8.88144 0
      vertex 8.25 14.2894 0
    endloop
  endfacet
  facet normal 0 0 1
    outer loop
      vertex 8.25 14.2894 0
      vertex 2.40775 8.67195 0
      vertex 11.0407 12.2619 0
    endloop
  endfacet
  facet normal 0 0 1
    outer loop
      vertex 2.40775 8.67195 0
      vertex 3 8.43598 0
      vertex 11.0407 12.2619 0
    endloop
  endfacet
  facet normal 0 0 1
    outer loop
      vertex 5.61803 -5.17557 0
      vertex 4.61803 -5.90211 0
      vertex 15.0735 -6.71115 0
    endloop
  endfacet
  facet normal 0 0 1
    outer loop
      vertex 11.0407 12.2619 0
      vertex 3.38197 5.90211 0
      vertex 13.3488 9.69846 0
    endloop
  endfacet
  facet normal 0 0 1
    outer loop
      vertex 11.0407 12.2619 0
      vertex 3 5.6246 0
      vertex 3.38197 5.90211 0
    endloop
  endfacet
  facet normal 0 0 1
    outer loop
      vertex -3 5.10929 0
      vertex -2.93934 5.06066 0
      vertex -2.41017 5.49464 0
    endloop
  endfacet
  facet normal 0 0 1
    outer loop
      vertex 13.3488 9.69846 0
      vertex 5.61803 5.17557 0
      vertex 15.0735 6.71115 0
    endloop
  endfacet
  facet normal 0 0 1
    outer loop
      vertex 2 4 0
      vertex -4 2.5 0
      vertex -5.91817 0.987568 0
    endloop
  endfacet
  facet normal 0 0 1
    outer loop
      vertex 8.78958 -1.93473 0
      vertex 8.43066 -3 0
      vertex 16.1394 -3.43054 0
    endloop
  endfacet
  facet normal 0 0 1
    outer loop
      vertex 15.0735 6.71115 0
      vertex 8.43066 3 0
      vertex 16.1394 3.43054 0
    endloop
  endfacet
  facet normal 0 0 1
    outer loop
      vertex 4.61803 2.09789 0
      vertex 3.38197 2.09789 0
      vertex -5.91817 -0.987568 0
    endloop
  endfacet
  facet normal 0 0 1
    outer loop
      vertex 16.1394 3.43054 0
      vertex 9 0 0
      vertex 16.5 0 0
    endloop
  endfacet
  facet normal 0 0 1
    outer loop
      vertex 16.5 0 0
      vertex 8.78958 -1.93473 0
      vertex 16.1394 -3.43054 0
    endloop
  endfacet
  facet normal 0 0 1
    outer loop
      vertex 5.6749 -1.9482 0
      vertex 3.38197 -2.09789 0
      vertex 4.61803 -2.09789 0
    endloop
  endfacet
  facet normal 0 0 1
    outer loop
      vertex 5.6749 -1.9482 0
      vertex -1.57295 -2.23664 0
      vertex 3.38197 -2.09789 0
    endloop
  endfacet
  facet normal 0 0 1
    outer loop
      vertex -3 -8.45276 0
      vertex -3 -6.80017 0
      vertex -3.07295 -6.85317 0
    endloop
  endfacet
  facet normal 0 0 1
    outer loop
      vertex 16.1394 -3.43054 0
      vertex 6 -4 0
      vertex 15.0735 -6.71115 0
    endloop
  endfacet
  facet normal 0 0 1
    outer loop
      vertex 2 -4 0
      vertex 2.38197 -2.82443 0
      vertex -1 -4 0
    endloop
  endfacet
  facet normal 0 0 1
    outer loop
      vertex -7 -4 0
      vertex -6.67508 -3 0
      vertex -16.1394 -3.43054 0
    endloop
  endfacet
  facet normal 0 0 1
    outer loop
      vertex 2.38197 -5.17557 0
      vertex 2 -4 0
      vertex -1 -4 0
    endloop
  endfacet
  facet normal 0 0 1
    outer loop
      vertex -6.42705 -5.76336 0
      vertex -7 -4 0
      vertex -16.1394 -3.43054 0
    endloop
  endfacet
  facet normal 0 0 1
    outer loop
      vertex 15.0735 -6.71115 0
      vertex 4.61803 -5.90211 0
      vertex 3.38197 -5.90211 0
    endloop
  endfacet
  facet normal 0 0 1
    outer loop
      vertex 2.38197 -2.82443 0
      vertex 3.38197 -2.09789 0
      vertex -1.57295 -2.23664 0
    endloop
  endfacet
  facet normal 0 0 1
    outer loop
      vertex 13.3488 -9.69846 0
      vertex 3 -8.43598 0
      vertex 11.0407 -12.2619 0
    endloop
  endfacet
  facet normal 0 0 1
    outer loop
      vertex 3 -8.43598 0
      vertex 2.40775 -8.67195 0
      vertex 11.0407 -12.2619 0
    endloop
  endfacet
  facet normal 0 0 1
    outer loop
      vertex -8.52888 -2.87371 0
      vertex -8.94724 -0.973071 0
      vertex -16.1394 -3.43054 0
    endloop
  endfacet
  facet normal 0 0 1
    outer loop
      vertex 11.0407 -12.2619 0
      vertex 0.48725 -8.9868 0
      vertex 8.25 -14.2894 0
    endloop
  endfacet
  facet normal 0 0 1
    outer loop
      vertex 0.48725 -8.9868 0
      vertex -1.45604 -8.88144 0
      vertex 8.25 -14.2894 0
    endloop
  endfacet
  facet normal 0 0 1
    outer loop
      vertex -1.45604 -8.88144 0
      vertex -3 -8.45276 0
      vertex 8.25 -14.2894 0
    endloop
  endfacet
  facet normal 0 0 1
    outer loop
      vertex -4.92705 -6.85317 0
      vertex -6.42705 -5.76336 0
      vertex -16.1394 -3.43054 0
    endloop
  endfacet
  facet normal 0 0 1
    outer loop
      vertex 2.40775 -8.67195 0
      vertex 0.48725 -8.9868 0
      vertex 11.0407 -12.2619 0
    endloop
  endfacet
  facet normal 0 0 1
    outer loop
      vertex -8.47045 3 0
      vertex -3 8.45276 0
      vertex -16.1394 -3.43054 0
    endloop
  endfacet
  facet normal 0 0 1
    outer loop
      vertex -8.47045 -3 0
      vertex -16.1394 -3.43054 0
      vertex -6.67508 -3 0
    endloop
  endfacet
  facet normal 0 0 1
    outer loop
      vertex -8.52888 -2.87371 0
      vertex -16.1394 -3.43054 0
      vertex -8.47045 -3 0
    endloop
  endfacet
  facet normal 0 0 1
    outer loop
      vertex -5.06066 2.93934 0
      vertex -5.5 4 0
      vertex -5.16452 3 0
    endloop
  endfacet
  facet normal 0 0 1
    outer loop
      vertex -5.91817 -0.987568 0
      vertex -5.67655 -1.69137 0
      vertex -4.92705 -1.14683 0
    endloop
  endfacet
  facet normal 0 0 1
    outer loop
      vertex -3 8.45276 0
      vertex -1.45604 8.88144 0
      vertex 5.09878 15.6924 0
    endloop
  endfacet
  facet normal 0 0 1
    outer loop
      vertex -1 -4 0
      vertex -1.55593 -5.71096 0
      vertex 1.47291 -5.8164 0
    endloop
  endfacet
  facet normal 0 0 1
    outer loop
      vertex 3.38197 -5.90211 0
      vertex 3 -8.43598 0
      vertex 13.3488 -9.69846 0
    endloop
  endfacet
  facet normal 0 0 1
    outer loop
      vertex -2.41017 5.49464 0
      vertex -2.93934 5.06066 0
      vertex -0.495476 5.97951 0
    endloop
  endfacet
  facet normal 0 0 1
    outer loop
      vertex -5.27684 2.85568 0
      vertex -4 2.5 0
      vertex -5.06066 2.93934 0
    endloop
  endfacet
  facet normal 0 0 1
    outer loop
      vertex -5.06066 5.06066 0
      vertex -3 8.45276 0
      vertex -8.47045 3 0
    endloop
  endfacet
  facet normal 0 0 1
    outer loop
      vertex 1.47291 5.8164 0
      vertex -2.93934 2.93934 0
      vertex 2.38197 5.17557 0
    endloop
  endfacet
  facet normal 0 0 1
    outer loop
      vertex -4 5.5 0
      vertex -2.93934 5.06066 0
      vertex -3 5.10929 0
    endloop
  endfacet
  facet normal 0 0 1
    outer loop
      vertex 3 8.43598 0
      vertex 3 5.6246 0
      vertex 11.0407 12.2619 0
    endloop
  endfacet
  facet normal 0 0 1
    outer loop
      vertex -4 5.5 0
      vertex -3 8.45276 0
      vertex -5.06066 5.06066 0
    endloop
  endfacet
  facet normal 0 0 1
    outer loop
      vertex -1.57295 -2.23664 0
      vertex -1 -4 0
      vertex 2.38197 -2.82443 0
    endloop
  endfacet
  facet normal 0 0 1
    outer loop
      vertex -5.91817 0.987568 0
      vertex -5.91817 -0.987568 0
      vertex 2.38197 2.82443 0
    endloop
  endfacet
  facet normal 0 0 1
    outer loop
      vertex 2.58973 5.32652 0
      vertex 1.47291 5.8164 0
      vertex 2.38197 5.17557 0
    endloop
  endfacet
  facet normal 0 0 1
    outer loop
      vertex -2.93934 5.06066 0
      vertex 1.47291 5.8164 0
      vertex -0.495476 5.97951 0
    endloop
  endfacet
  facet normal 0 0 1
    outer loop
      vertex -2.93934 5.06066 0
      vertex -2.5 4 0
      vertex 1.47291 5.8164 0
    endloop
  endfacet
  facet normal 0 0 1
    outer loop
      vertex -8.94724 -0.973071 0
      vertex -8.94724 0.973071 0
      vertex -16.1394 -3.43054 0
    endloop
  endfacet
  facet normal 0 0 1
    outer loop
      vertex -8.47045 3 0
      vertex -5.16452 3 0
      vertex -5.5 4 0
    endloop
  endfacet
  facet normal 0 -1 0
    outer loop
      vertex -6.67508 -3 0
      vertex -6.67508 -3 6
      vertex -8.47045 -3 6
    endloop
  endfacet
  facet normal 0 -1 0
    outer loop
      vertex -8.47045 -3 0
      vertex -6.67508 -3 0
      vertex -8.47045 -3 6
    endloop
  endfacet
  facet normal 0 0 1
    outer loop
      vertex -8.94724 0.973071 6
      vertex -8.94724 -0.973071 6
      vertex -8.52888 -2.87371 6
    endloop
  endfacet
  facet normal 0 0 1
    outer loop
      vertex -6.67508 -3 6
      vertex -8.94724 0.973071 6
      vertex -8.47045 -3 6
    endloop
  endfacet
  facet normal 0 0 1
    outer loop
      vertex -8.47045 -3 6
      vertex -8.94724 0.973071 6
      vertex -8.52888 -2.87371 6
    endloop
  endfacet
  facet normal 0 0 1
    outer loop
      vertex -6.42705 -2.23664 6
      vertex -8.94724 0.973071 6
      vertex -6.67508 -3 6
    endloop
  endfacet
  facet normal 0 0 1
    outer loop
      vertex -5.67655 -1.69137 6
      vertex -8.94724 0.973071 6
      vertex -6.42705 -2.23664 6
    endloop
  endfacet
  facet normal 0 0 1
    outer loop
      vertex -5.91817 -0.987568 6
      vertex -8.94724 0.973071 6
      vertex -5.67655 -1.69137 6
    endloop
  endfacet
  facet normal 0 0 1
    outer loop
      vertex -5.91817 0.987568 6
      vertex -8.94724 0.973071 6
      vertex -5.91817 -0.987568 6
    endloop
  endfacet
  facet normal 0 0 1
    outer loop
      vertex -5.27684 2.85568 6
      vertex -8.94724 0.973071 6
      vertex -5.91817 0.987568 6
    endloop
  endfacet
  facet normal 0 0 1
    outer loop
      vertex -5.16452 3 6
      vertex -8.94724 0.973071 6
      vertex -5.27684 2.85568 6
    endloop
  endfacet
  facet normal 0 0 1
    outer loop
      vertex -8.47045 3 6
      vertex -8.94724 0.973071 6
      vertex -5.16452 3 6
    endloop
  endfacet
  facet normal 0 0 1
    outer loop
      vertex -8.52888 2.87371 6
      vertex -8.94724 0.973071 6
      vertex -8.47045 3 6
    endloop
  endfacet
  facet normal 0.945817 0.324699 0
    outer loop
      vertex -5.91817 -0.987568 6
      vertex -5.67655 -1.69137 6
      vertex -5.67655 -1.69137 0
    endloop
  endfacet
  facet normal 0.945817 0.324699 0
    outer loop
      vertex -5.91817 -0.987568 0
      vertex -5.91817 -0.987568 6
      vertex -5.67655 -1.69137 0
    endloop
  endfacet
  facet normal 0 0 1
    outer loop
      vertex -3 -6.80017 6
      vertex -3 -8.45276 6
      vertex -1.45604 -8.88144 6
    endloop
  endfacet
  facet normal 0 0 1
    outer loop
      vertex 2.40775 -8.67195 6
      vertex -3 -6.80017 6
      vertex 0.48725 -8.9868 6
    endloop
  endfacet
  facet normal 0 0 1
    outer loop
      vertex 0.48725 -8.9868 6
      vertex -3 -6.80017 6
      vertex -1.45604 -8.88144 6
    endloop
  endfacet
  facet normal 0 0 1
    outer loop
      vertex 3 -8.43598 6
      vertex -3 -6.80017 6
      vertex 2.40775 -8.67195 6
    endloop
  endfacet
  facet normal 0 0 1
    outer loop
      vertex 3 -5.6246 6
      vertex -3 -6.80017 6
      vertex 3 -8.43598 6
    endloop
  endfacet
  facet normal 0 0 1
    outer loop
      vertex 1.47291 -5.8164 6
      vertex -3 -6.80017 6
      vertex 3 -5.6246 6
    endloop
  endfacet
  facet normal 0 0 1
    outer loop
      vertex 2.58973 -5.32652 6
      vertex 1.47291 -5.8164 6
      vertex 3 -5.6246 6
    endloop
  endfacet
  facet normal 0 0 1
    outer loop
      vertex -1.57295 -5.76336 6
      vertex -3 -6.80017 6
      vertex -0.495476 -5.97951 6
    endloop
  endfacet
  facet normal 0 0 1
    outer loop
      vertex -1.55593 -5.71096 6
      vertex -1.57295 -5.76336 6
      vertex -0.495476 -5.97951 6
    endloop
  endfacet
  facet normal 0 0 1
    outer loop
      vertex 1.47291 -5.8164 6
      vertex -0.495476 -5.97951 6
      vertex -3 -6.80017 6
    endloop
  endfacet
  facet normal 0.245485 0.9694 0
    outer loop
      vertex -0.495476 -5.97951 6
      vertex -0.495476 -5.97951 0
      vertex -1.55593 -5.71096 6
    endloop
  endfacet
  facet normal 0.245485 0.9694 0
    outer loop
      vertex -1.55593 -5.71096 6
      vertex -0.495476 -5.97951 0
      vertex -1.55593 -5.71096 0
    endloop
  endfacet
  facet normal -1 0 0
    outer loop
      vertex -3 -6.80017 6
      vertex -3 -6.80017 0
      vertex -3 -8.45276 6
    endloop
  endfacet
  facet normal -1 0 0
    outer loop
      vertex -3 -8.45276 6
      vertex -3 -6.80017 0
      vertex -3 -8.45276 0
    endloop
  endfacet
  facet normal -0.879474 0.475947 0
    outer loop
      vertex 5.6749 -1.9482 6
      vertex 5.6749 -1.9482 0
      vertex 5.31849 -2.6068 6
    endloop
  endfacet
  facet normal -0.879474 0.475947 0
    outer loop
      vertex 5.31849 -2.6068 6
      vertex 5.6749 -1.9482 0
      vertex 5.31849 -2.6068 0
    endloop
  endfacet
  facet normal 0 0 1
    outer loop
      vertex 5.6749 -1.9482 6
      vertex 5.31849 -2.6068 6
      vertex 5.61803 -2.82443 6
    endloop
  endfacet
  facet normal 0 0 1
    outer loop
      vertex 5.67508 -3 6
      vertex 5.6749 -1.9482 6
      vertex 5.61803 -2.82443 6
    endloop
  endfacet
  facet normal 0 0 1
    outer loop
      vertex 5.67508 -3 6
      vertex 8.43066 -3 6
      vertex 5.6749 -1.9482 6
    endloop
  endfacet
  facet normal 0 0 1
    outer loop
      vertex 8.43066 -3 6
      vertex 8.78958 -1.93473 6
      vertex 5.6749 -1.9482 6
    endloop
  endfacet
  facet normal 0 0 1
    outer loop
      vertex 8.78958 -1.93473 6
      vertex 9 0 6
      vertex 5.6749 -1.9482 6
    endloop
  endfacet
  facet normal 0 0 1
    outer loop
      vertex 9 0 6
      vertex 8.78958 1.93473 6
      vertex 5.6749 -1.9482 6
    endloop
  endfacet
  facet normal 0 0 1
    outer loop
      vertex 8.78958 1.93473 6
      vertex 8.43066 3 6
      vertex 5.6749 -1.9482 6
    endloop
  endfacet
  facet normal 0 0 1
    outer loop
      vertex 5.6749 1.9482 6
      vertex 6 0 6
      vertex 5.67508 3 6
    endloop
  endfacet
  facet normal 0 0 1
    outer loop
      vertex 8.43066 3 6
      vertex 6 0 6
      vertex 5.6749 -1.9482 6
    endloop
  endfacet
  facet normal 0 0 1
    outer loop
      vertex 8.43066 3 6
      vertex 5.67508 3 6
      vertex 6 0 6
    endloop
  endfacet
  facet normal 0 0 1
    outer loop
      vertex 5.61803 2.82443 6
      vertex 5.6749 1.9482 6
      vertex 5.67508 3 6
    endloop
  endfacet
  facet normal 0 0 1
    outer loop
      vertex 5.31849 2.6068 6
      vertex 5.6749 1.9482 6
      vertex 5.61803 2.82443 6
    endloop
  endfacet
  facet normal 0 -1 0
    outer loop
      vertex 8.43066 -3 0
      vertex 8.43066 -3 6
      vertex 5.67508 -3 6
    endloop
  endfacet
  facet normal 0 -1 0
    outer loop
      vertex 5.67508 -3 0
      vertex 8.43066 -3 0
      vertex 5.67508 -3 6
    endloop
  endfacet
  facet normal 1 0 0
    outer loop
      vertex 3 -5.6246 0
      vertex 3 -5.6246 6
      vertex 3 -8.43598 6
    endloop
  endfacet
  facet normal 1 0 0
    outer loop
      vertex 3 -8.43598 0
      vertex 3 -5.6246 0
      vertex 3 -8.43598 6
    endloop
  endfacet
  facet normal -0.401696 0.915773 0
    outer loop
      vertex 2.58973 -5.32652 6
      vertex 2.58973 -5.32652 0
      vertex 1.47291 -5.8164 6
    endloop
  endfacet
  facet normal -0.401696 0.915773 0
    outer loop
      vertex 1.47291 -5.8164 6
      vertex 2.58973 -5.32652 0
      vertex 1.47291 -5.8164 0
    endloop
  endfacet
  facet normal -0.401696 -0.915773 0
    outer loop
      vertex 2.58973 5.32652 0
      vertex 2.58973 5.32652 6
      vertex 1.47291 5.8164 6
    endloop
  endfacet
  facet normal -0.401696 -0.915773 0
    outer loop
      vertex 1.47291 5.8164 0
      vertex 2.58973 5.32652 0
      vertex 1.47291 5.8164 6
    endloop
  endfacet
  facet normal 0 0 1
    outer loop
      vertex 1.47291 5.8164 6
      vertex 2.58973 5.32652 6
      vertex -3 8.45276 6
    endloop
  endfacet
  facet normal 0 0 1
    outer loop
      vertex -3 8.45276 6
      vertex -3 5.10929 6
      vertex -2.41017 5.49464 6
    endloop
  endfacet
  facet normal 0 0 1
    outer loop
      vertex -0.495476 5.97951 6
      vertex -3 8.45276 6
      vertex -2.41017 5.49464 6
    endloop
  endfacet
  facet normal 0 0 1
    outer loop
      vertex -0.495476 5.97951 6
      vertex 1.47291 5.8164 6
      vertex -3 8.45276 6
    endloop
  endfacet
  facet normal 0 0 1
    outer loop
      vertex 2.58973 5.32652 6
      vertex 3 5.6246 6
      vertex -3 8.45276 6
    endloop
  endfacet
  facet normal 0 0 1
    outer loop
      vertex 3 5.6246 6
      vertex 3 8.43598 6
      vertex -3 8.45276 6
    endloop
  endfacet
  facet normal 0 0 1
    outer loop
      vertex 3 8.43598 6
      vertex 2.40775 8.67195 6
      vertex -3 8.45276 6
    endloop
  endfacet
  facet normal 0 0 1
    outer loop
      vertex 2.40775 8.67195 6
      vertex 0.48725 8.9868 6
      vertex -3 8.45276 6
    endloop
  endfacet
  facet normal 0 0 1
    outer loop
      vertex 0.48725 8.9868 6
      vertex -1.45604 8.88144 6
      vertex -3 8.45276 6
    endloop
  endfacet
  facet normal 1 0 0
    outer loop
      vertex 3 8.43598 0
      vertex 3 8.43598 6
      vertex 3 5.6246 6
    endloop
  endfacet
  facet normal 1 0 0
    outer loop
      vertex 3 5.6246 0
      vertex 3 8.43598 0
      vertex 3 5.6246 6
    endloop
  endfacet
  facet normal 0 1 0
    outer loop
      vertex 8.43066 3 6
      vertex 8.43066 3 0
      vertex 5.67508 3 6
    endloop
  endfacet
  facet normal 0 1 0
    outer loop
      vertex 5.67508 3 6
      vertex 8.43066 3 0
      vertex 5.67508 3 0
    endloop
  endfacet
  facet normal -0.879474 -0.475947 0
    outer loop
      vertex 5.6749 1.9482 6
      vertex 5.31849 2.6068 6
      vertex 5.6749 1.9482 0
    endloop
  endfacet
  facet normal -0.879474 -0.475947 0
    outer loop
      vertex 5.6749 1.9482 0
      vertex 5.31849 2.6068 6
      vertex 5.31849 2.6068 0
    endloop
  endfacet
  facet normal 0.994522 0.104529 0
    outer loop
      vertex -16.5 0 6
      vertex -16.1394 -3.43054 6
      vertex -16.1394 -3.43054 0
    endloop
  endfacet
  facet normal 0.994522 0.104529 0
    outer loop
      vertex -16.5 0 0
      vertex -16.5 0 6
      vertex -16.1394 -3.43054 0
    endloop
  endfacet
  facet normal 0.951057 0.309017 0
    outer loop
      vertex -16.1394 -3.43054 6
      vertex -15.0735 -6.71115 6
      vertex -15.0735 -6.71115 0
    endloop
  endfacet
  facet normal 0.951057 0.309017 0
    outer loop
      vertex -16.1394 -3.43054 0
      vertex -16.1394 -3.43054 6
      vertex -15.0735 -6.71115 0
    endloop
  endfacet
  facet normal 0.866025 0.5 0
    outer loop
      vertex -15.0735 -6.71115 6
      vertex -13.3488 -9.69846 6
      vertex -13.3488 -9.69846 0
    endloop
  endfacet
  facet normal 0.866025 0.5 0
    outer loop
      vertex -15.0735 -6.71115 0
      vertex -15.0735 -6.71115 6
      vertex -13.3488 -9.69846 0
    endloop
  endfacet
  facet normal 0.743145 0.669131 0
    outer loop
      vertex -13.3488 -9.69846 6
      vertex -11.0407 -12.2619 6
      vertex -11.0407 -12.2619 0
    endloop
  endfacet
  facet normal 0.743145 0.669131 0
    outer loop
      vertex -13.3488 -9.69846 0
      vertex -13.3488 -9.69846 6
      vertex -11.0407 -12.2619 0
    endloop
  endfacet
  facet normal 0.587785 0.809017 0
    outer loop
      vertex -8.25 -14.2894 6
      vertex -8.25 -14.2894 0
      vertex -11.0407 -12.2619 6
    endloop
  endfacet
  facet normal 0.587785 0.809017 0
    outer loop
      vertex -11.0407 -12.2619 6
      vertex -8.25 -14.2894 0
      vertex -11.0407 -12.2619 0
    endloop
  endfacet
  facet normal 0.406737 0.913545 0
    outer loop
      vertex -5.09878 -15.6924 6
      vertex -5.09878 -15.6924 0
      vertex -8.25 -14.2894 6
    endloop
  endfacet
  facet normal 0.406737 0.913545 0
    outer loop
      vertex -8.25 -14.2894 6
      vertex -5.09878 -15.6924 0
      vertex -8.25 -14.2894 0
    endloop
  endfacet
  facet normal 0.207912 0.978148 0
    outer loop
      vertex -1.72472 -16.4096 6
      vertex -1.72472 -16.4096 0
      vertex -5.09878 -15.6924 6
    endloop
  endfacet
  facet normal 0.207912 0.978148 0
    outer loop
      vertex -5.09878 -15.6924 6
      vertex -1.72472 -16.4096 0
      vertex -5.09878 -15.6924 0
    endloop
  endfacet
  facet normal 0 1 0
    outer loop
      vertex 1.72472 -16.4096 6
      vertex 1.72472 -16.4096 0
      vertex -1.72472 -16.4096 6
    endloop
  endfacet
  facet normal 0 1 0
    outer loop
      vertex -1.72472 -16.4096 6
      vertex 1.72472 -16.4096 0
      vertex -1.72472 -16.4096 0
    endloop
  endfacet
  facet normal -0.207912 0.978148 0
    outer loop
      vertex 5.09878 -15.6924 6
      vertex 5.09878 -15.6924 0
      vertex 1.72472 -16.4096 6
    endloop
  endfacet
  facet normal -0.207912 0.978148 0
    outer loop
      vertex 1.72472 -16.4096 6
      vertex 5.09878 -15.6924 0
      vertex 1.72472 -16.4096 0
    endloop
  endfacet
  facet normal -0.406737 0.913545 0
    outer loop
      vertex 8.25 -14.2894 6
      vertex 8.25 -14.2894 0
      vertex 5.09878 -15.6924 6
    endloop
  endfacet
  facet normal -0.406737 0.913545 0
    outer loop
      vertex 5.09878 -15.6924 6
      vertex 8.25 -14.2894 0
      vertex 5.09878 -15.6924 0
    endloop
  endfacet
  facet normal -0.587785 0.809017 0
    outer loop
      vertex 11.0407 -12.2619 6
      vertex 11.0407 -12.2619 0
      vertex 8.25 -14.2894 6
    endloop
  endfacet
  facet normal -0.587785 0.809017 0
    outer loop
      vertex 8.25 -14.2894 6
      vertex 11.0407 -12.2619 0
      vertex 8.25 -14.2894 0
    endloop
  endfacet
  facet normal -0.743145 0.669131 0
    outer loop
      vertex 13.3488 -9.69846 6
      vertex 13.3488 -9.69846 0
      vertex 11.0407 -12.2619 6
    endloop
  endfacet
  facet normal -0.743145 0.669131 0
    outer loop
      vertex 11.0407 -12.2619 6
      vertex 13.3488 -9.69846 0
      vertex 11.0407 -12.2619 0
    endloop
  endfacet
  facet normal -0.866025 0.5 0
    outer loop
      vertex 15.0735 -6.71115 6
      vertex 15.0735 -6.71115 0
      vertex 13.3488 -9.69846 6
    endloop
  endfacet
  facet normal -0.866025 0.5 0
    outer loop
      vertex 13.3488 -9.69846 6
      vertex 15.0735 -6.71115 0
      vertex 13.3488 -9.69846 0
    endloop
  endfacet
  facet normal -0.951057 0.309017 0
    outer loop
      vertex 16.1394 -3.43054 6
      vertex 16.1394 -3.43054 0
      vertex 15.0735 -6.71115 6
    endloop
  endfacet
  facet normal -0.951057 0.309017 0
    outer loop
      vertex 15.0735 -6.71115 6
      vertex 16.1394 -3.43054 0
      vertex 15.0735 -6.71115 0
    endloop
  endfacet
  facet normal -0.994522 0.104529 0
    outer loop
      vertex 16.5 0 6
      vertex 16.5 0 0
      vertex 16.1394 -3.43054 6
    endloop
  endfacet
  facet normal -0.994522 0.104529 0
    outer loop
      vertex 16.1394 -3.43054 6
      vertex 16.5 0 0
      vertex 16.1394 -3.43054 0
    endloop
  endfacet
  facet normal -0.994522 -0.104529 0
    outer loop
      vertex 16.5 0 6
      vertex 16.1394 3.43054 6
      vertex 16.5 0 0
    endloop
  endfacet
  facet normal -0.994522 -0.104529 0
    outer loop
      vertex 16.5 0 0
      vertex 16.1394 3.43054 6
      vertex 16.1394 3.43054 0
    endloop
  endfacet
  facet normal -0.951057 -0.309017 0
    outer loop
      vertex 16.1394 3.43054 6
      vertex 15.0735 6.71115 6
      vertex 16.1394 3.43054 0
    endloop
  endfacet
  facet normal -0.951057 -0.309017 0
    outer loop
      vertex 16.1394 3.43054 0
      vertex 15.0735 6.71115 6
      vertex 15.0735 6.71115 0
    endloop
  endfacet
  facet normal -0.866025 -0.5 0
    outer loop
      vertex 15.0735 6.71115 6
      vertex 13.3488 9.69846 6
      vertex 15.0735 6.71115 0
    endloop
  endfacet
  facet normal -0.866025 -0.5 0
    outer loop
      vertex 15.0735 6.71115 0
      vertex 13.3488 9.69846 6
      vertex 13.3488 9.69846 0
    endloop
  endfacet
  facet normal -0.743145 -0.669131 0
    outer loop
      vertex 13.3488 9.69846 6
      vertex 11.0407 12.2619 6
      vertex 13.3488 9.69846 0
    endloop
  endfacet
  facet normal -0.743145 -0.669131 0
    outer loop
      vertex 13.3488 9.69846 0
      vertex 11.0407 12.2619 6
      vertex 11.0407 12.2619 0
    endloop
  endfacet
  facet normal -0.587785 -0.809017 0
    outer loop
      vertex 11.0407 12.2619 0
      vertex 11.0407 12.2619 6
      vertex 8.25 14.2894 6
    endloop
  endfacet
  facet normal -0.587785 -0.809017 0
    outer loop
      vertex 8.25 14.2894 0
      vertex 11.0407 12.2619 0
      vertex 8.25 14.2894 6
    endloop
  endfacet
  facet normal -0.406737 -0.913545 0
    outer loop
      vertex 8.25 14.2894 0
      vertex 8.25 14.2894 6
      vertex 5.09878 15.6924 6
    endloop
  endfacet
  facet normal -0.406737 -0.913545 0
    outer loop
      vertex 5.09878 15.6924 0
      vertex 8.25 14.2894 0
      vertex 5.09878 15.6924 6
    endloop
  endfacet
  facet normal -0.207912 -0.978148 0
    outer loop
      vertex 5.09878 15.6924 0
      vertex 5.09878 15.6924 6
      vertex 1.72472 16.4096 6
    endloop
  endfacet
  facet normal -0.207912 -0.978148 0
    outer loop
      vertex 1.72472 16.4096 0
      vertex 5.09878 15.6924 0
      vertex 1.72472 16.4096 6
    endloop
  endfacet
  facet normal 0 -1 0
    outer loop
      vertex 1.72472 16.4096 0
      vertex 1.72472 16.4096 6
      vertex -1.72472 16.4096 6
    endloop
  endfacet
  facet normal 0 -1 0
    outer loop
      vertex -1.72472 16.4096 0
      vertex 1.72472 16.4096 0
      vertex -1.72472 16.4096 6
    endloop
  endfacet
  facet normal 0.207912 -0.978148 0
    outer loop
      vertex -1.72472 16.4096 0
      vertex -1.72472 16.4096 6
      vertex -5.09878 15.6924 6
    endloop
  endfacet
  facet normal 0.207912 -0.978148 0
    outer loop
      vertex -5.09878 15.6924 0
      vertex -1.72472 16.4096 0
      vertex -5.09878 15.6924 6
    endloop
  endfacet
  facet normal 0.406737 -0.913545 0
    outer loop
      vertex -5.09878 15.6924 0
      vertex -5.09878 15.6924 6
      vertex -8.25 14.2894 6
    endloop
  endfacet
  facet normal 0.406737 -0.913545 0
    outer loop
      vertex -8.25 14.2894 0
      vertex -5.09878 15.6924 0
      vertex -8.25 14.2894 6
    endloop
  endfacet
  facet normal 0.587785 -0.809017 0
    outer loop
      vertex -8.25 14.2894 0
      vertex -8.25 14.2894 6
      vertex -11.0407 12.2619 6
    endloop
  endfacet
  facet normal 0.587785 -0.809017 0
    outer loop
      vertex -11.0407 12.2619 0
      vertex -8.25 14.2894 0
      vertex -11.0407 12.2619 6
    endloop
  endfacet
  facet normal 0.743145 -0.669131 0
    outer loop
      vertex -11.0407 12.2619 0
      vertex -11.0407 12.2619 6
      vertex -13.3488 9.69846 6
    endloop
  endfacet
  facet normal 0.743145 -0.669131 0
    outer loop
      vertex -13.3488 9.69846 0
      vertex -11.0407 12.2619 0
      vertex -13.3488 9.69846 6
    endloop
  endfacet
  facet normal 0.866025 -0.5 0
    outer loop
      vertex -13.3488 9.69846 0
      vertex -13.3488 9.69846 6
      vertex -15.0735 6.71115 6
    endloop
  endfacet
  facet normal 0.866025 -0.5 0
    outer loop
      vertex -15.0735 6.71115 0
      vertex -13.3488 9.69846 0
      vertex -15.0735 6.71115 6
    endloop
  endfacet
  facet normal 0.951057 -0.309017 0
    outer loop
      vertex -15.0735 6.71115 0
      vertex -15.0735 6.71115 6
      vertex -16.1394 3.43054 6
    endloop
  endfacet
  facet normal 0.951057 -0.309017 0
    outer loop
      vertex -16.1394 3.43054 0
      vertex -15.0735 6.71115 0
      vertex -16.1394 3.43054 6
    endloop
  endfacet
  facet normal 0.994522 -0.104529 0
    outer loop
      vertex -16.1394 3.43054 0
      vertex -16.1394 3.43054 6
      vertex -16.5 0 6
    endloop
  endfacet
  facet normal 0.994522 -0.104529 0
    outer loop
      vertex -16.5 0 0
      vertex -16.1394 3.43054 0
      vertex -16.5 0 6
    endloop
  endfacet
  facet normal -0.976621 0.21497 0
    outer loop
      vertex -8.94724 0.973071 0
      vertex -8.94724 0.973071 6
      vertex -8.52888 2.87371 0
    endloop
  endfacet
  facet normal -0.976621 0.21497 0
    outer loop
      vertex -8.52888 2.87371 0
      vertex -8.94724 0.973071 6
      vertex -8.52888 2.87371 6
    endloop
  endfacet
  facet normal -1 0 0
    outer loop
      vertex -8.94724 -0.973071 0
      vertex -8.94724 -0.973071 6
      vertex -8.94724 0.973071 0
    endloop
  endfacet
  facet normal -1 0 0
    outer loop
      vertex -8.94724 0.973071 0
      vertex -8.94724 -0.973071 6
      vertex -8.94724 0.973071 6
    endloop
  endfacet
  facet normal -0.976621 -0.21497 0
    outer loop
      vertex -8.94724 -0.973071 0
      vertex -8.52888 -2.87371 0
      vertex -8.94724 -0.973071 6
    endloop
  endfacet
  facet normal -0.976621 -0.21497 0
    outer loop
      vertex -8.94724 -0.973071 6
      vertex -8.52888 -2.87371 0
      vertex -8.52888 -2.87371 6
    endloop
  endfacet
  facet normal -0.907575 -0.419889 0
    outer loop
      vertex -8.52888 -2.87371 0
      vertex -8.47045 -3 0
      vertex -8.52888 -2.87371 6
    endloop
  endfacet
  facet normal -0.907575 -0.419889 0
    outer loop
      vertex -8.52888 -2.87371 6
      vertex -8.47045 -3 0
      vertex -8.47045 -3 6
    endloop
  endfacet
  facet normal -0.267529 -0.96355 0
    outer loop
      vertex -3 -8.45276 6
      vertex -3 -8.45276 0
      vertex -1.45604 -8.88144 0
    endloop
  endfacet
  facet normal -0.267529 -0.96355 0
    outer loop
      vertex -1.45604 -8.88144 6
      vertex -3 -8.45276 6
      vertex -1.45604 -8.88144 0
    endloop
  endfacet
  facet normal -0.0541389 -0.998533 0
    outer loop
      vertex -1.45604 -8.88144 6
      vertex -1.45604 -8.88144 0
      vertex 0.48725 -8.9868 0
    endloop
  endfacet
  facet normal -0.0541389 -0.998533 0
    outer loop
      vertex 0.48725 -8.9868 6
      vertex -1.45604 -8.88144 6
      vertex 0.48725 -8.9868 0
    endloop
  endfacet
  facet normal 0.161782 -0.986827 0
    outer loop
      vertex 0.48725 -8.9868 6
      vertex 0.48725 -8.9868 0
      vertex 2.40775 -8.67195 0
    endloop
  endfacet
  facet normal 0.161782 -0.986827 0
    outer loop
      vertex 2.40775 -8.67195 6
      vertex 0.48725 -8.9868 6
      vertex 2.40775 -8.67195 0
    endloop
  endfacet
  facet normal 0.370138 -0.928977 0
    outer loop
      vertex 2.40775 -8.67195 6
      vertex 2.40775 -8.67195 0
      vertex 3 -8.43598 0
    endloop
  endfacet
  facet normal 0.370138 -0.928977 0
    outer loop
      vertex 3 -8.43598 6
      vertex 2.40775 -8.67195 6
      vertex 3 -8.43598 0
    endloop
  endfacet
  facet normal 0.947653 -0.319301 0
    outer loop
      vertex 8.43066 -3 6
      vertex 8.43066 -3 0
      vertex 8.78958 -1.93473 0
    endloop
  endfacet
  facet normal 0.947653 -0.319301 0
    outer loop
      vertex 8.78958 -1.93473 6
      vertex 8.43066 -3 6
      vertex 8.78958 -1.93473 0
    endloop
  endfacet
  facet normal 0.994138 -0.108119 0
    outer loop
      vertex 8.78958 -1.93473 6
      vertex 8.78958 -1.93473 0
      vertex 9 0 0
    endloop
  endfacet
  facet normal 0.994138 -0.108119 0
    outer loop
      vertex 9 0 6
      vertex 8.78958 -1.93473 6
      vertex 9 0 0
    endloop
  endfacet
  facet normal 0.994138 0.108119 0
    outer loop
      vertex 9 0 0
      vertex 8.78958 1.93473 0
      vertex 8.78958 1.93473 6
    endloop
  endfacet
  facet normal 0.994138 0.108119 0
    outer loop
      vertex 9 0 6
      vertex 9 0 0
      vertex 8.78958 1.93473 6
    endloop
  endfacet
  facet normal 0.947653 0.319301 0
    outer loop
      vertex 8.78958 1.93473 0
      vertex 8.43066 3 0
      vertex 8.43066 3 6
    endloop
  endfacet
  facet normal 0.947653 0.319301 0
    outer loop
      vertex 8.78958 1.93473 6
      vertex 8.78958 1.93473 0
      vertex 8.43066 3 6
    endloop
  endfacet
  facet normal 0.370138 0.928977 0
    outer loop
      vertex 2.40775 8.67195 0
      vertex 2.40775 8.67195 6
      vertex 3 8.43598 0
    endloop
  endfacet
  facet normal 0.370138 0.928977 0
    outer loop
      vertex 3 8.43598 0
      vertex 2.40775 8.67195 6
      vertex 3 8.43598 6
    endloop
  endfacet
  facet normal 0.161782 0.986827 0
    outer loop
      vertex 0.48725 8.9868 0
      vertex 0.48725 8.9868 6
      vertex 2.40775 8.67195 0
    endloop
  endfacet
  facet normal 0.161782 0.986827 0
    outer loop
      vertex 2.40775 8.67195 0
      vertex 0.48725 8.9868 6
      vertex 2.40775 8.67195 6
    endloop
  endfacet
  facet normal -0.0541389 0.998533 0
    outer loop
      vertex -1.45604 8.88144 0
      vertex -1.45604 8.88144 6
      vertex 0.48725 8.9868 0
    endloop
  endfacet
  facet normal -0.0541389 0.998533 0
    outer loop
      vertex 0.48725 8.9868 0
      vertex -1.45604 8.88144 6
      vertex 0.48725 8.9868 6
    endloop
  endfacet
  facet normal -0.267529 0.96355 0
    outer loop
      vertex -3 8.45276 0
      vertex -3 8.45276 6
      vertex -1.45604 8.88144 0
    endloop
  endfacet
  facet normal -0.267529 0.96355 0
    outer loop
      vertex -1.45604 8.88144 0
      vertex -3 8.45276 6
      vertex -1.45604 8.88144 6
    endloop
  endfacet
  facet normal -1 0 0
    outer loop
      vertex -3 8.45276 6
      vertex -3 8.45276 0
      vertex -3 5.10929 6
    endloop
  endfacet
  facet normal -1 0 0
    outer loop
      vertex -3 5.10929 6
      vertex -3 8.45276 0
      vertex -3 5.10929 0
    endloop
  endfacet
  facet normal 0.546949 -0.837166 0
    outer loop
      vertex -2.41017 5.49464 0
      vertex -2.41017 5.49464 6
      vertex -3 5.10929 6
    endloop
  endfacet
  facet normal 0.546949 -0.837166 0
    outer loop
      vertex -3 5.10929 0
      vertex -2.41017 5.49464 0
      vertex -3 5.10929 6
    endloop
  endfacet
  facet normal 0.245485 -0.9694 0
    outer loop
      vertex -0.495476 5.97951 0
      vertex -0.495476 5.97951 6
      vertex -2.41017 5.49464 6
    endloop
  endfacet
  facet normal 0.245485 -0.9694 0
    outer loop
      vertex -2.41017 5.49464 0
      vertex -0.495476 5.97951 0
      vertex -2.41017 5.49464 6
    endloop
  endfacet
  facet normal -0.0825792 -0.996585 0
    outer loop
      vertex 1.47291 5.8164 0
      vertex 1.47291 5.8164 6
      vertex -0.495476 5.97951 6
    endloop
  endfacet
  facet normal -0.0825792 -0.996585 0
    outer loop
      vertex -0.495476 5.97951 0
      vertex 1.47291 5.8164 0
      vertex -0.495476 5.97951 6
    endloop
  endfacet
  facet normal -0.986361 -0.164595 0
    outer loop
      vertex 6 0 6
      vertex 5.6749 1.9482 6
      vertex 6 0 0
    endloop
  endfacet
  facet normal -0.986361 -0.164595 0
    outer loop
      vertex 6 0 0
      vertex 5.6749 1.9482 6
      vertex 5.6749 1.9482 0
    endloop
  endfacet
  facet normal -0.986361 0.164595 0
    outer loop
      vertex 6 0 6
      vertex 6 0 0
      vertex 5.6749 -1.9482 6
    endloop
  endfacet
  facet normal -0.986361 0.164595 0
    outer loop
      vertex 5.6749 -1.9482 6
      vertex 6 0 0
      vertex 5.6749 -1.9482 0
    endloop
  endfacet
  facet normal -0.0825792 0.996585 0
    outer loop
      vertex 1.47291 -5.8164 6
      vertex 1.47291 -5.8164 0
      vertex -0.495476 -5.97951 6
    endloop
  endfacet
  facet normal -0.0825792 0.996585 0
    outer loop
      vertex -0.495476 -5.97951 6
      vertex 1.47291 -5.8164 0
      vertex -0.495476 -5.97951 0
    endloop
  endfacet
  facet normal 1 0 0
    outer loop
      vertex -5.91817 0.987568 0
      vertex -5.91817 0.987568 6
      vertex -5.91817 -0.987568 6
    endloop
  endfacet
  facet normal 1 0 0
    outer loop
      vertex -5.91817 -0.987568 0
      vertex -5.91817 0.987568 0
      vertex -5.91817 -0.987568 6
    endloop
  endfacet
  facet normal 0.945817 -0.324699 0
    outer loop
      vertex -5.27684 2.85568 0
      vertex -5.27684 2.85568 6
      vertex -5.91817 0.987568 6
    endloop
  endfacet
  facet normal 0.945817 -0.324699 0
    outer loop
      vertex -5.91817 0.987568 0
      vertex -5.27684 2.85568 0
      vertex -5.91817 0.987568 6
    endloop
  endfacet
  facet normal 0.78914 -0.614213 0
    outer loop
      vertex -5.16452 3 0
      vertex -5.16452 3 6
      vertex -5.27684 2.85568 6
    endloop
  endfacet
  facet normal 0.78914 -0.614213 0
    outer loop
      vertex -5.27684 2.85568 0
      vertex -5.16452 3 0
      vertex -5.27684 2.85568 6
    endloop
  endfacet
  facet normal 0 1 0
    outer loop
      vertex -5.16452 3 6
      vertex -5.16452 3 0
      vertex -8.47045 3 6
    endloop
  endfacet
  facet normal 0 1 0
    outer loop
      vertex -8.47045 3 6
      vertex -5.16452 3 0
      vertex -8.47045 3 0
    endloop
  endfacet
  facet normal -0.907575 0.419889 0
    outer loop
      vertex -8.52888 2.87371 0
      vertex -8.52888 2.87371 6
      vertex -8.47045 3 0
    endloop
  endfacet
  facet normal -0.907575 0.419889 0
    outer loop
      vertex -8.47045 3 0
      vertex -8.52888 2.87371 6
      vertex -8.47045 3 6
    endloop
  endfacet
endsolid OpenSCAD_Model
